<?xml version="1.0"?>
<svg width="199.6" height="222" xmlns="http://www.w3.org/2000/svg" xmlns:svg="http://www.w3.org/2000/svg" enable-background="new 0 0 199.6 222" version="1.1" xml:space="preserve">
 <style type="text/css">.st0{fill:#575756;}

	.st1{fill:#F39200;}

	.st2{fill:none;stroke:#FFFFFF;stroke-width:4;stroke-linecap:round;stroke-linejoin:round;stroke-miterlimit:10;}

	.st3{fill:#FFFFFF;}

	.st4{fill:none;stroke:#FFFFFF;stroke-width:2;stroke-linecap:round;stroke-linejoin:round;stroke-miterlimit:10;}</style>
 <g class="layer">
  <title>Layer 1</title>
  <path class="st1" d="m101.8,196.2l0,0c-45.4,0 -82.2,-36.8 -82.2,-82.2l0,0c0,-45.4 36.8,-82.2 82.2,-82.2l0,0c45.4,0 82.2,36.8 82.2,82.2l0,0c-0.1,45.4 -36.9,82.2 -82.2,82.2z" id="svg_1"/>
  <g id="svg_2">
   <path class="st2" d="m49.2,135l31.6,0l0,31.6c0,1.8 1.5,3.3 3.3,3.3l35.4,0c1.8,0 3.3,-1.5 3.3,-3.3l0,-31.6l31.6,0c1.8,0 3.3,-1.5 3.3,-3.3l0,-35.4c0,-1.8 -1.5,-3.3 -3.3,-3.3l-31.6,0l0,-31.5c0,-1.8 -1.5,-3.3 -3.3,-3.3l-35.4,0c-1.8,0 -3.3,1.5 -3.3,3.3l0,31.5l-31.6,0c-1.8,0 -3.3,1.5 -3.3,3.3l0,35.4c0.1,1.8 1.5,3.3 3.3,3.3z" id="XMLID_18_"/>
   <g id="svg_3">
    <g id="svg_4">
     <circle class="st3" cx="152.9" cy="101.7" id="svg_5" r="1"/>
    </g>
    <line class="st4" id="svg_6" x1="152.9" x2="152.9" y1="104.4" y2="107.4"/>
   </g>
  </g>
  <g id="svg_7">
   <path class="st2" d="m51.54,133.18l30.05,0l0,29.76c0,1.7 1.43,3.11 3.14,3.11l33.66,0c1.71,0 3.14,-1.41 3.14,-3.11l0,-29.76l30.05,0c1.71,0 3.14,-1.41 3.14,-3.11l0,-33.34c0,-1.7 -1.43,-3.11 -3.14,-3.11l-30.05,0l0,-29.67c0,-1.7 -1.43,-3.11 -3.14,-3.11l-33.66,0c-1.71,0 -3.14,1.41 -3.14,3.11l0,29.67l-30.05,0c-1.71,0 -3.14,1.41 -3.14,3.11l0,33.34c0.1,1.7 1.43,3.11 3.14,3.11z" id="svg_8"/>
   <g id="svg_9">
    <g id="svg_10">
     <circle class="st3" cx="150.14" cy="101.82" id="svg_11" r="0.91"/>
    </g>
    <line class="st4" id="svg_12" x1="150.14" x2="150.14" y1="104.36" y2="107.19"/>
   </g>
  </g>
  <g id="svg_13">
   <path class="st2" d="m54.1,133.4l28.21,0l0,29.34c0,1.67 1.34,3.06 2.95,3.06l31.6,0c1.61,0 2.95,-1.39 2.95,-3.06l0,-29.34l28.21,0c1.61,0 2.95,-1.39 2.95,-3.06l0,-32.86c0,-1.67 -1.34,-3.06 -2.95,-3.06l-28.21,0l0,-29.24c0,-1.67 -1.34,-3.06 -2.95,-3.06l-31.6,0c-1.61,0 -2.95,1.39 -2.95,3.06l0,29.24l-28.21,0c-1.61,0 -2.95,1.39 -2.95,3.06l0,32.86c0.09,1.67 1.34,3.06 2.95,3.06z" id="svg_14"/>
   <g id="svg_15">
    <g id="svg_16">
     <circle class="st3" cx="146.67" cy="102.48" id="svg_17" r="0.85"/>
    </g>
    <line class="st4" id="svg_18" x1="146.67" x2="146.67" y1="104.99" y2="107.78"/>
   </g>
  </g>
  <g id="svg_19">
   <path class="st2" d="m57.15,132.93l26.37,0l0,28.63c0,1.63 1.25,2.99 2.75,2.99l29.54,0c1.5,0 2.75,-1.36 2.75,-2.99l0,-28.63l26.37,0c1.5,0 2.75,-1.36 2.75,-2.99l0,-32.07c0,-1.63 -1.25,-2.99 -2.75,-2.99l-26.37,0l0,-28.54c0,-1.63 -1.25,-2.99 -2.75,-2.99l-29.54,0c-1.5,0 -2.75,1.36 -2.75,2.99l0,28.54l-26.37,0c-1.5,0 -2.75,1.36 -2.75,2.99l0,32.07c0.08,1.63 1.25,2.99 2.75,2.99z" id="svg_20"/>
   <g id="svg_21">
    <g id="svg_22">
     <circle class="st3" cx="143.69" cy="102.76" id="svg_23" r="0.8"/>
    </g>
    <line class="st4" id="svg_24" x1="143.69" x2="143.69" y1="105.21" y2="107.93"/>
   </g>
  </g>
  <g id="svg_25">
   <path class="st2" d="m60.2,131.87l24.39,0l0,26.65c0,1.52 1.16,2.78 2.55,2.78l27.33,0c1.39,0 2.55,-1.26 2.55,-2.78l0,-26.65l24.39,0c1.39,0 2.55,-1.26 2.55,-2.78l0,-29.85c0,-1.52 -1.16,-2.78 -2.55,-2.78l-24.39,0l0,-26.56c0,-1.52 -1.16,-2.78 -2.55,-2.78l-27.33,0c-1.39,0 -2.55,1.26 -2.55,2.78l0,26.56l-24.39,0c-1.39,0 -2.55,1.26 -2.55,2.78l0,29.85c0.08,1.52 1.16,2.78 2.55,2.78z" id="svg_26"/>
   <g id="svg_27">
    <g id="svg_28">
     <circle class="st3" cx="140.24" cy="103.78" id="svg_29" r="0.74"/>
    </g>
    <line class="st4" id="svg_30" x1="140.24" x2="140.24" y1="106.06" y2="108.59"/>
   </g>
  </g>
  <g id="svg_31">
   <path class="st2" d="m63.51,130.96l22.56,0l0,25.66c0,1.46 1.07,2.68 2.36,2.68l25.27,0c1.28,0 2.36,-1.22 2.36,-2.68l0,-25.66l22.56,0c1.28,0 2.36,-1.22 2.36,-2.68l0,-28.74c0,-1.46 -1.07,-2.68 -2.36,-2.68l-22.56,0l0,-25.58c0,-1.46 -1.07,-2.68 -2.36,-2.68l-25.27,0c-1.28,0 -2.36,1.22 -2.36,2.68l0,25.58l-22.56,0c-1.28,0 -2.36,1.22 -2.36,2.68l0,28.74c0.07,1.46 1.07,2.68 2.36,2.68z" id="svg_32"/>
   <g id="svg_33">
    <g id="svg_34">
     <circle class="st3" cx="137.52" cy="103.92" id="svg_35" r="0.68"/>
    </g>
    <line class="st4" id="svg_36" x1="137.52" x2="137.52" y1="106.11" y2="108.55"/>
   </g>
  </g>
  <g id="svg_37">
   <path class="st2" d="m67.06,131.18l20.72,0l0,25.23c0,1.44 0.98,2.64 2.16,2.64l23.21,0c1.18,0 2.16,-1.2 2.16,-2.64l0,-25.23l20.72,0c1.18,0 2.16,-1.2 2.16,-2.64l0,-28.27c0,-1.44 -0.98,-2.64 -2.16,-2.64l-20.72,0l0,-25.15c0,-1.44 -0.98,-2.64 -2.16,-2.64l-23.21,0c-1.18,0 -2.16,1.2 -2.16,2.64l0,25.15l-20.72,0c-1.18,0 -2.16,1.2 -2.16,2.64l0,28.27c0.07,1.44 0.98,2.64 2.16,2.64z" id="svg_38"/>
   <g id="svg_39">
    <g id="svg_40">
     <circle class="st3" cx="135.05" cy="104.59" id="svg_41" r="0.62"/>
    </g>
    <line class="st4" id="svg_42" x1="135.05" x2="135.05" y1="106.74" y2="109.14"/>
   </g>
  </g>
  <g id="svg_43">
   <path class="st2" d="m93.18,116.71l5.03,0l0,4.16c0,0.24 0.24,0.43 0.53,0.43l5.64,0c0.29,0 0.53,-0.2 0.53,-0.43l0,-4.16l5.03,0c0.29,0 0.53,-0.2 0.53,-0.43l0,-4.66c0,-0.24 -0.24,-0.43 -0.53,-0.43l-5.03,0l0,-4.15c0,-0.24 -0.24,-0.43 -0.53,-0.43l-5.64,0c-0.29,0 -0.53,0.2 -0.53,0.43l0,4.15l-5.03,0c-0.29,0 -0.53,0.2 -0.53,0.43l0,4.66c0.02,0.24 0.24,0.43 0.53,0.43z" id="svg_44"/>
   <g id="svg_45">
    <g id="svg_46">
     <circle class="st3" cx="109.69" cy="112.32" id="svg_47" r="0.05"/>
    </g>
    <line class="st4" id="svg_48" x1="109.69" x2="109.69" y1="112.68" y2="113.07"/>
   </g>
  </g>
 </g>
</svg>
