<?xml version="1.0" standalone="no"?>
<!DOCTYPE svg PUBLIC "-//W3C//DTD SVG 20010904//EN"
 "http://www.w3.org/TR/2001/REC-SVG-20010904/DTD/svg10.dtd">
<svg version="1.0" xmlns="http://www.w3.org/2000/svg"
 width="332.000000pt" height="67.000000pt" viewBox="0 0 1920.000000 388.000000"
 preserveAspectRatio="xMidYMid meet">

<g transform="translate(0.000000,388.000000) scale(0.100000,-0.100000)"
fill="#000000" stroke="none">
<path d="M12746 3530 l-57 -70 53 0 c53 0 54 0 78 45 14 25 27 45 30 45 3 0
16 -20 30 -45 24 -44 26 -45 72 -45 27 0 48 3 48 6 0 3 -23 35 -51 70 -50 63
-52 64 -99 64 -47 0 -48 -1 -104 -70z"/>
<path d="M11570 3283 c-42 -108 -207 -526 -217 -551 -4 -10 6 -12 42 -10 l48
3 36 92 36 93 137 0 136 0 38 -95 37 -95 44 0 c24 0 43 4 43 9 0 10 -237 616
-251 643 -7 13 -21 18 -49 18 l-38 0 -42 -107z m134 -155 c26 -64 46 -121 46
-127 0 -7 -35 -11 -100 -11 -55 0 -100 2 -100 5 0 6 90 237 97 248 7 12 8 11
57 -115z"/>
<path d="M12165 3371 c-52 -24 -99 -74 -126 -136 -17 -38 -24 -75 -27 -157 -6
-142 17 -225 82 -292 80 -82 205 -98 294 -36 l42 30 0 -30 c0 -28 2 -30 40
-30 l40 0 0 180 0 180 -125 0 -125 0 0 -40 0 -40 80 0 c76 0 80 -1 80 -22 0
-49 -24 -104 -60 -140 -33 -34 -43 -38 -86 -38 -73 0 -113 26 -149 95 -27 52
-30 67 -30 154 0 54 6 113 14 134 27 77 91 127 165 127 49 0 86 -16 126 -55
l35 -34 28 24 c15 13 27 28 27 33 0 16 -80 83 -116 98 -48 20 -160 18 -209 -5z"/>
<path d="M12640 3055 l0 -335 215 0 215 0 0 40 0 40 -172 2 -173 3 0 110 0
110 153 3 152 3 0 39 0 40 -155 0 -155 0 0 95 0 95 175 0 175 0 0 45 0 45
-215 0 -215 0 0 -335z"/>
<path d="M13190 3055 l0 -335 40 0 40 0 0 240 c0 132 3 240 8 240 4 0 72 -108
152 -240 l145 -240 43 0 42 0 -2 333 -3 332 -40 0 -40 0 -5 -241 -5 -241 -148
244 -149 243 -39 0 -39 0 0 -335z"/>
<path d="M13924 3371 c-52 -24 -109 -90 -131 -155 -14 -38 -18 -81 -18 -171 0
-107 3 -126 26 -175 44 -95 107 -142 204 -155 85 -12 187 30 232 95 14 20 13
24 -8 46 -12 13 -27 24 -33 24 -6 0 -27 -16 -47 -36 -31 -30 -47 -38 -88 -42
-64 -6 -92 2 -131 34 -42 36 -58 71 -70 151 -11 78 0 173 26 228 50 106 190
126 274 40 l33 -34 34 26 34 26 -38 39 c-56 57 -106 78 -189 78 -45 0 -83 -7
-110 -19z"/>
<path d="M14380 3055 l0 -335 40 0 40 0 0 335 0 335 -40 0 -40 0 0 -335z"/>
<path d="M14801 3368 c-5 -13 -64 -162 -130 -331 -67 -169 -121 -310 -121
-313 0 -3 21 -4 46 -2 l46 3 35 93 36 92 137 0 137 0 36 -92 35 -93 47 -3 c41
-3 46 -1 41 15 -3 10 -61 160 -129 333 l-123 315 -42 3 c-36 3 -43 0 -51 -20z
m102 -241 c26 -68 47 -126 47 -130 0 -4 -45 -7 -100 -7 -55 0 -100 3 -100 8 0
13 95 252 100 252 3 0 26 -56 53 -123z"/>
<path d="M15500 3056 l0 -336 40 0 39 0 3 143 3 142 135 5 c148 5 182 17 224
73 17 24 21 43 21 112 0 99 -15 127 -89 164 -43 21 -64 24 -212 29 l-164 5 0
-337z m360 218 c27 -26 36 -85 20 -124 -20 -49 -54 -60 -185 -60 l-115 0 0
106 0 106 130 -4 c115 -3 132 -5 150 -24z"/>
<path d="M16187 3383 c-7 -12 -257 -650 -257 -657 0 -3 20 -6 44 -6 l44 0 37
95 37 95 136 0 137 0 36 -93 36 -92 48 -3 c41 -3 46 -1 41 15 -3 10 -62 160
-130 333 l-123 315 -41 3 c-22 2 -42 -1 -45 -5z m91 -248 c64 -162 70 -145
-47 -145 -56 0 -101 3 -101 8 -1 20 95 251 101 245 4 -5 25 -53 47 -108z"/>
<path d="M16610 3055 l0 -335 45 0 45 0 0 150 0 150 48 0 c26 0 57 -7 68 -15
12 -8 58 -75 103 -150 l83 -135 49 0 c28 0 48 3 46 8 -3 4 -43 71 -91 148 -47
78 -86 144 -86 147 0 2 13 7 29 10 40 8 88 52 101 93 17 51 8 148 -16 181 -50
66 -111 82 -311 83 l-113 0 0 -335z m339 221 c27 -25 37 -78 20 -117 -18 -45
-60 -59 -174 -59 l-95 0 0 101 0 101 114 -4 c95 -2 117 -6 135 -22z"/>
<path d="M17380 3368 c-17 -41 -250 -639 -250 -644 0 -2 20 -4 44 -4 l44 0 37
95 37 95 138 0 137 0 36 -92 35 -93 47 -3 c41 -3 46 -1 41 15 -3 10 -61 160
-129 333 l-123 315 -42 3 c-36 3 -43 0 -52 -20z m103 -241 c26 -68 47 -126 47
-130 0 -4 -45 -7 -100 -7 -55 0 -100 3 -100 8 0 13 95 252 100 252 3 0 26 -55
53 -123z"/>
<path d="M18277 3383 c-7 -11 -257 -653 -257 -659 0 -2 20 -4 44 -4 l44 0 37
95 37 95 137 0 138 0 35 -92 35 -93 47 -3 c42 -3 47 -1 42 15 -3 10 -62 160
-130 333 l-123 315 -41 3 c-22 2 -42 -1 -45 -5z m97 -263 c25 -63 46 -118 46
-122 0 -10 -200 -11 -200 0 -1 21 94 252 101 245 4 -4 28 -60 53 -123z"/>
<path d="M5701 3364 c-166 -45 -311 -174 -446 -400 -9 -14 -17 -6 -55 57 -64
110 -175 215 -280 266 -249 121 -583 106 -836 -38 -91 -52 -214 -164 -287
-262 l-52 -70 -3 186 -2 187 -210 0 -210 0 0 -1320 0 -1320 220 0 220 0 0 733
c1 402 5 779 10 836 30 338 173 575 412 685 124 58 260 78 370 55 148 -31 238
-115 292 -272 21 -61 21 -74 26 -1047 l5 -985 223 -3 222 -2 0 945 0 945 225
0 225 0 0 195 0 195 225 0 225 0 0 -1145 0 -1145 455 0 455 0 0 1145 0 1145
-225 0 -225 0 0 225 0 225 -462 -1 c-373 0 -474 -3 -517 -15z"/>
<path d="M7872 3153 l3 -228 683 -3 682 -2 0 -225 0 -225 -680 0 -680 0 0
-225 0 -225 -230 0 -230 0 0 -465 0 -465 230 0 230 0 0 -225 0 -225 1360 0
1360 0 0 225 0 225 -225 0 -225 0 0 920 0 920 -230 0 -230 0 0 225 0 225 -910
0 -910 0 2 -227z m1366 -1600 l2 -463 -455 0 -455 0 0 465 0 465 453 -2 452
-3 3 -462z"/>
<path d="M11110 2010 c0 -907 3 -1370 10 -1370 7 0 10 463 10 1370 0 907 -3
1370 -10 1370 -7 0 -10 -463 -10 -1370z"/>
<path d="M1620 3363 c-169 -12 -348 -53 -464 -107 -279 -129 -428 -353 -462
-693 l-7 -73 205 0 205 0 22 91 c50 217 163 337 371 395 98 28 375 25 484 -5
161 -43 261 -113 311 -215 49 -102 53 -265 8 -367 -24 -54 -79 -104 -130 -118
-21 -6 -234 -36 -473 -66 -546 -69 -637 -92 -800 -200 -147 -98 -260 -260
-306 -440 -26 -98 -26 -343 0 -435 69 -253 251 -433 521 -516 86 -27 100 -28
295 -28 226 0 310 13 470 76 141 55 329 183 423 287 20 23 41 41 46 41 4 0 11
-28 15 -61 13 -128 87 -233 199 -284 111 -51 312 -58 435 -15 l62 22 0 156 0
157 -109 0 c-102 0 -111 2 -135 24 -14 14 -30 41 -36 60 -6 23 -10 345 -10
856 0 894 0 890 -58 1016 -16 35 -50 91 -75 124 -170 224 -567 350 -1007 318z
m700 -1603 c0 -128 -5 -252 -11 -282 -48 -230 -271 -426 -574 -504 -79 -20
-126 -26 -225 -27 -175 -2 -279 31 -368 117 -108 102 -151 301 -101 462 17 56
31 77 78 124 98 98 239 151 496 186 368 49 571 90 645 129 25 13 48 24 53 24
4 1 7 -102 7 -229z"/>
<path d="M17570 2498 c-43 -29 -45 -39 -15 -61 23 -16 27 -16 49 -2 22 14 28
14 75 -5 72 -28 114 -26 152 8 l30 27 -25 24 c-25 24 -26 24 -47 5 -20 -18
-22 -18 -82 4 -78 28 -96 28 -137 0z"/>
<path d="M12299 2345 c-65 -21 -132 -95 -156 -171 -25 -84 -23 -250 4 -320 45
-114 126 -174 236 -174 118 0 194 46 243 146 23 47 28 73 32 158 8 177 -31
279 -130 340 -58 35 -156 44 -229 21z m192 -100 c20 -13 44 -40 53 -60 49
-102 43 -272 -11 -349 -85 -120 -265 -87 -308 57 -19 65 -19 189 0 253 35 117
165 166 266 99z"/>
<path d="M16982 2342 c-97 -39 -155 -133 -167 -274 -18 -201 67 -360 204 -383
33 -5 41 -11 46 -35 5 -23 -2 -41 -35 -90 l-41 -60 49 0 48 0 30 62 c16 34 28
64 28 67 -1 3 -5 16 -8 27 -6 18 1 25 46 47 29 15 68 41 86 60 l33 34 -31 27
-32 26 -45 -40 c-77 -68 -159 -67 -229 3 -50 51 -64 94 -64 203 0 103 20 170
62 211 68 65 164 64 239 -4 l40 -36 27 24 c15 13 29 25 31 27 3 1 -11 19 -30
38 -73 77 -190 104 -287 66z"/>
<path d="M18258 2345 c-64 -24 -106 -63 -140 -133 -32 -64 -33 -71 -33 -192 0
-122 1 -127 33 -193 54 -109 129 -152 252 -145 170 9 260 144 247 371 -4 84
-10 108 -37 163 -48 98 -121 143 -230 143 -30 0 -72 -7 -92 -14z m147 -78 c74
-29 109 -79 125 -179 20 -128 -18 -260 -86 -300 -87 -51 -192 -25 -241 60 -24
41 -28 60 -31 147 -5 122 8 174 55 226 49 54 113 71 178 46z"/>
<path d="M11410 2020 l0 -330 45 0 45 0 1 203 0 202 76 -203 77 -203 39 3 40
3 76 205 76 205 3 -207 2 -208 40 0 40 0 0 330 0 330 -39 0 c-45 0 -25 41
-165 -335 l-74 -199 -14 34 c-8 19 -54 140 -103 267 l-90 233 -37 0 -38 0 0
-330z"/>
<path d="M12810 2020 l0 -330 148 0 c177 0 235 13 280 64 48 55 56 94 56 266
0 172 -8 211 -56 266 -45 51 -103 64 -280 64 l-148 0 0 -330z m309 237 c79
-21 86 -41 86 -237 0 -156 -2 -171 -21 -197 -28 -37 -80 -51 -191 -52 l-93 -1
0 250 0 250 88 -1 c48 0 107 -6 131 -12z"/>
<path d="M13460 2020 l0 -330 215 0 215 0 0 40 0 40 -175 0 -175 0 0 110 0
110 155 0 155 0 0 40 0 40 -155 0 -155 0 0 100 0 100 175 0 175 0 0 40 0 40
-215 0 -215 0 0 -330z"/>
<path d="M14050 2020 l0 -330 40 0 40 0 0 145 0 145 51 0 c28 0 59 -4 69 -10
10 -5 55 -71 101 -145 l82 -135 49 0 50 0 -20 33 c-11 17 -51 83 -90 146 l-70
114 49 24 c76 38 110 115 90 204 -13 57 -38 89 -91 117 -40 20 -58 22 -197 22
l-153 0 0 -330z m305 236 c63 -27 76 -106 26 -157 -29 -29 -31 -29 -140 -29
l-111 0 0 100 0 100 95 0 c60 0 108 -5 130 -14z"/>
<path d="M14660 2020 l0 -330 40 0 40 0 0 240 c0 132 3 240 8 240 4 -1 72
-109 152 -240 l145 -240 42 0 43 0 0 330 0 330 -45 0 -45 0 -2 -239 -3 -240
-138 224 c-75 124 -140 231 -143 240 -4 10 -20 15 -50 15 l-44 0 0 -330z"/>
<path d="M15310 2020 l0 -330 45 0 45 0 0 330 0 330 -45 0 -45 0 0 -330z"/>
<path d="M15590 2310 l0 -40 155 0 c85 0 155 -3 155 -7 0 -8 -3 -12 -202 -301
-108 -156 -148 -221 -148 -243 l0 -29 235 0 235 0 0 40 0 40 -174 2 -174 3
174 250 c147 213 173 256 174 288 l0 37 -215 0 -215 0 0 -40z"/>
<path d="M16376 2342 c-2 -4 -59 -147 -126 -317 -67 -171 -124 -316 -127 -323
-4 -10 6 -12 43 -10 l48 3 35 93 36 92 136 0 136 0 35 -92 35 -93 48 -3 c42
-3 47 -1 41 15 -4 10 -62 159 -129 331 l-121 312 -43 0 c-23 0 -44 -4 -47 -8z
m144 -374 c0 -5 -45 -8 -100 -8 -55 0 -100 2 -100 4 0 6 90 238 97 249 5 8
103 -226 103 -245z"/>
<path d="M17520 2028 c-69 -176 -127 -325 -129 -330 -1 -5 18 -8 45 -6 l47 3
35 93 35 92 136 0 136 0 36 -93 36 -92 48 -3 c42 -3 47 -1 41 15 -4 10 -62
159 -129 330 l-122 313 -45 0 -45 0 -125 -322z m223 64 c26 -64 47 -121 47
-125 0 -4 -45 -7 -100 -7 -55 0 -100 2 -100 6 0 14 94 244 100 244 3 0 28 -53
53 -118z"/>
<path d="M11607 1308 c-3 -7 -60 -152 -127 -323 -67 -171 -124 -316 -127 -323
-4 -10 6 -12 43 -10 l48 3 36 93 35 93 138 -3 139 -3 35 -92 36 -93 43 0 c24
0 44 3 44 8 0 4 -57 154 -127 334 l-128 328 -41 0 c-24 0 -44 -5 -47 -12z m97
-248 c25 -63 46 -120 46 -127 0 -10 -25 -13 -100 -13 -55 0 -100 2 -100 5 0 6
89 235 96 247 8 13 7 16 58 -112z"/>
<path d="M12040 986 l0 -336 133 0 c155 0 237 17 280 58 55 52 61 74 65 248 5
195 -8 254 -63 302 -49 43 -89 52 -262 59 l-153 6 0 -337z m330 226 c50 -24
62 -59 68 -186 5 -134 -9 -221 -41 -254 -27 -26 -130 -45 -220 -40 l-52 3 -3
248 -2 247 107 0 c83 0 116 -4 143 -18z"/>
<path d="M12650 985 l0 -335 40 0 40 0 0 202 c0 123 4 198 9 193 5 -6 32 -71
59 -145 101 -275 89 -250 130 -250 l37 0 75 201 75 200 3 -200 2 -201 45 0 45
0 0 336 0 335 -41 -3 -41 -3 -95 -255 c-52 -140 -98 -258 -102 -263 -4 -4 -31
55 -61 130 -29 76 -75 195 -103 266 l-49 127 -34 0 -34 0 0 -335z"/>
<path d="M13360 985 l0 -335 45 0 45 0 0 335 0 335 -45 0 -45 0 0 -335z"/>
<path d="M13600 985 l0 -335 40 0 40 0 2 245 3 245 71 -117 c39 -65 106 -175
148 -245 l78 -128 39 0 39 0 0 335 0 335 -40 0 -40 0 -2 -247 -3 -247 -150
247 -150 246 -37 1 -38 0 0 -335z"/>
<path d="M14210 985 l0 -335 45 0 45 0 0 335 0 335 -45 0 -45 0 0 -335z"/>
<path d="M14567 1306 c-76 -28 -117 -86 -117 -163 0 -58 26 -105 72 -129 18
-10 85 -32 148 -50 95 -27 120 -39 143 -65 25 -27 28 -37 22 -68 -14 -78 -103
-123 -203 -100 -65 14 -91 33 -114 86 -19 44 -21 45 -56 38 -21 -4 -38 -8 -40
-10 -2 -2 2 -22 10 -46 30 -103 143 -167 274 -156 129 10 204 76 212 189 8
105 -54 170 -191 203 -105 26 -176 54 -187 75 -42 78 56 145 176 120 51 -11
94 -44 106 -81 5 -14 44 -7 71 14 18 12 17 15 -15 58 -50 65 -105 92 -197 96
-49 2 -90 -2 -114 -11z"/>
<path d="M14990 1275 l0 -45 100 0 100 0 0 -290 0 -290 43 0 42 0 -3 290 -3
289 103 3 103 3 3 43 3 42 -245 0 -246 0 0 -45z"/>
<path d="M15570 985 l0 -335 40 0 40 0 0 150 0 150 53 0 c29 0 61 -6 71 -13
10 -7 54 -73 100 -147 l82 -135 52 -3 51 -3 -89 147 c-50 80 -90 150 -90 154
0 5 13 11 28 15 91 20 139 150 93 251 -37 82 -104 104 -313 104 l-118 0 0
-335z m314 235 c54 -20 68 -113 22 -158 -25 -25 -33 -27 -141 -31 l-115 -3 0
101 0 101 104 0 c58 0 116 -4 130 -10z"/>
<path d="M16347 1313 c-6 -10 -257 -653 -257 -659 0 -2 20 -4 44 -4 l44 0 37
95 37 95 137 0 138 0 37 -95 38 -95 45 0 c38 0 44 3 39 18 -3 9 -61 159 -129
332 l-123 315 -41 3 c-23 2 -43 -1 -46 -5z m93 -250 c25 -64 46 -123 48 -130
3 -10 -19 -13 -97 -13 -56 0 -101 3 -101 8 0 13 94 252 99 252 3 0 26 -53 51
-117z"/>
<path d="M16727 1313 c-4 -3 -7 -24 -7 -45 l0 -38 105 0 105 0 0 -290 0 -290
40 0 40 0 0 290 0 290 100 0 100 0 0 45 0 45 -238 0 c-131 0 -242 -3 -245 -7z"/>
<path d="M17310 985 l0 -335 45 0 45 0 0 335 0 335 -45 0 -45 0 0 -335z"/>
<path d="M17502 1306 c2 -8 50 -159 108 -335 l105 -322 40 3 39 3 108 325 c59
179 107 328 107 333 1 4 -19 7 -43 7 l-43 0 -84 -256 -84 -256 -84 256 -85
256 -44 0 c-32 0 -43 -4 -40 -14z"/>
<path d="M18305 1310 c-10 -16 -255 -642 -255 -652 0 -4 20 -8 44 -8 l43 0 35
93 35 92 139 3 139 3 35 -93 36 -93 47 -3 c26 -2 47 -2 47 0 0 2 -58 152 -129
333 l-129 330 -40 3 c-22 2 -43 -2 -47 -8z m99 -263 c25 -65 46 -121 46 -123
0 -2 -45 -4 -100 -4 -73 0 -100 3 -100 12 0 25 94 248 101 241 4 -5 28 -61 53
-126z"/>
</g>
</svg>
