<?xml version="1.0" encoding="utf-8"?>
<!-- Generator: Adobe Illustrator 27.0.1, SVG Export Plug-In . SVG Version: 6.00 Build 0)  -->
<svg version="1.1" id="Layer_2" xmlns="http://www.w3.org/2000/svg" xmlns:xlink="http://www.w3.org/1999/xlink" x="0px" y="0px"
	 viewBox="0 0 553.5 146.1" style="enable-background:new 0 0 553.5 146.1;" xml:space="preserve">
<style type="text/css">
	.st0{clip-path:url(#SVGID_00000059306159258987039310000016387251311486760591_);fill:#EF7918;}
	.st1{fill:#EF7918;}
	.st2{fill:#4E4D4D;}
	.st3{fill:url(#SVGID_00000018920676046152441250000003558762072236660155_);}
	.st4{fill:url(#SVGID_00000048485896779929150520000009024925697242899872_);}
	.st5{fill:url(#SVGID_00000084496353299214341410000003410909046767815870_);}
	.st6{fill:url(#SVGID_00000124145672893834410190000008559966658217752715_);}
	.st7{fill:url(#SVGID_00000070803377211088552220000013933478777956765092_);}
	.st8{fill:url(#SVGID_00000109018906779968754200000000475807773721856408_);}
	.st9{fill:url(#SVGID_00000098202537815511146050000003966899625669210265_);}
	.st10{fill:url(#SVGID_00000072999078951389877650000017937455473803236761_);}
	.st11{fill:url(#SVGID_00000177459123766398506710000003848917637154059688_);}
	.st12{fill:url(#SVGID_00000095304553435327916310000017063073171494310304_);}
	.st13{fill:url(#SVGID_00000122683248234913467140000012205868321008682414_);}
	.st14{fill:url(#SVGID_00000075879984086567024440000017130441058707658892_);}
	.st15{fill:url(#SVGID_00000093135455128447638240000007177827981172647351_);}
	.st16{fill:url(#SVGID_00000044866323954147851360000007450158644515402416_);}
	.st17{fill:url(#SVGID_00000010289500941212798990000009352928658515532934_);}
	.st18{fill:url(#SVGID_00000153673399387965739560000005901829159119092114_);}
	.st19{fill:url(#SVGID_00000045621276647402189110000003873864142322122658_);}
	.st20{fill:url(#SVGID_00000105391524093502133420000017706264261739730322_);}
	.st21{fill:url(#SVGID_00000180362481153567777370000000128281210426578577_);}
	.st22{fill:url(#SVGID_00000035519675825268423840000014081920604323153845_);}
	.st23{fill:url(#SVGID_00000155835314182431400900000001520824674527470260_);}
	.st24{fill:url(#SVGID_00000011025060312328675770000001140029442192766101_);}
	.st25{fill:url(#SVGID_00000147939445184452987030000003347159644902256032_);}
	.st26{fill:url(#SVGID_00000098929098773481445790000002408737141166489271_);}
	.st27{fill:url(#SVGID_00000029755502389990419020000010698597444833082501_);}
	.st28{fill:url(#SVGID_00000111155052960468304860000010095166277054221499_);}
	.st29{fill:url(#SVGID_00000064327446415318920440000011823244074425849277_);}
	.st30{fill:url(#SVGID_00000119806702123458405050000007858926460627345811_);}
	.st31{fill:url(#SVGID_00000003073524624759604090000009886957067239735196_);}
	.st32{fill:url(#SVGID_00000004521730984624073440000000508351413830630791_);}
	.st33{fill:url(#SVGID_00000023247099912674229810000009808653125481033094_);}
	.st34{fill:url(#SVGID_00000154387027554287056790000016821312575591946423_);}
	.st35{fill:url(#SVGID_00000149379369117661353650000002953720575481312686_);}
	.st36{fill:url(#SVGID_00000097467791483441362400000003268392353757015713_);}
	.st37{fill:url(#SVGID_00000039130064148450380270000013679431642564739502_);}
	.st38{fill:url(#SVGID_00000122001864683404384040000009465368786237467289_);}
</style>
<g>
	<defs>
		<rect id="SVGID_1_" x="390.9" y="77.7" width="8.8" height="8.8"/>
	</defs>
	<use xlink:href="#SVGID_1_"  style="overflow:visible;fill:#EF7918;"/>
	<clipPath id="SVGID_00000045619833198686137870000000392525116124401837_">
		<use xlink:href="#SVGID_1_"  style="overflow:visible;"/>
	</clipPath>
	
		<rect x="389.2" y="76.1" transform="matrix(0.5159 -0.8567 0.8567 0.5159 120.9801 378.3667)" style="clip-path:url(#SVGID_00000045619833198686137870000000392525116124401837_);fill:#EF7918;" width="12.1" height="12.1"/>
</g>
<g>
	<path class="st1" d="M429.4,88.5h-5.9c-11.8,0-17.7-4.8-17.7-14.4v-7.2c0-9.6,5.9-14.4,17.7-14.4h5.9c11.8,0,17.7,4.8,17.7,14.4
		v21.5c0,9.6-5.9,14.4-17.7,14.4h-17.7v-7.2h17.7c5.9,0,8.8-2.4,8.8-7.2v-1.2C435.7,88,432.8,88.5,429.4,88.5 M423.5,81.3h5.9
		c5.9,0,8.8-2.4,8.8-7.2v-7.2c0-4.8-2.9-7.2-8.8-7.2h-5.9c-5.9,0-8.8,2.4-8.8,7.2v7.2C414.6,78.9,417.6,81.3,423.5,81.3"/>
	<path class="st1" d="M470.3,52.6h5.9c11.8,0,17.7,4.8,17.7,14.4v7.2c0,9.6-5.9,14.4-17.7,14.4h-5.9c-11.8,0-17.7-4.8-17.7-14.4
		v-7.2C452.6,57.4,458.5,52.6,470.3,52.6 M476.2,59.7h-5.9c-5.9,0-8.8,2.4-8.8,7.2v7.2c0,4.8,2.9,7.2,8.8,7.2h5.9
		c5.9,0,8.8-2.4,8.8-7.2v-7.2C485,62.1,482.1,59.7,476.2,59.7"/>
	<polygon class="st1" points="512.8,88.5 494.6,52.6 504,52.6 517.6,79.2 531.1,52.6 540.5,52.6 522.3,88.5 	"/>
</g>
<g>
	<path class="st2" d="M175.9,52.6h5.9c3.4,0,6.4,0.4,8.8,1.2V38.2h8.8v35.9c0,9.6-5.9,14.4-17.7,14.4h-5.9
		c-11.8,0-17.7-4.8-17.7-14.4v-7.2C158.3,57.4,164.1,52.6,175.9,52.6 M181.8,59.7h-5.9c-5.9,0-8.8,2.4-8.8,7.2v7.2
		c0,4.8,2.9,7.2,8.8,7.2h5.9c5.9,0,8.8-2.4,8.8-7.2v-7.2C190.6,62.1,187.7,59.7,181.8,59.7"/>
	<path class="st2" d="M227,88.5h-5.9c-11.8,0-17.7-3.6-17.7-10.8c0-7.2,5.9-10.8,17.7-10.8h14.7c0-4.8-2.9-7.2-8.8-7.2h-17.7v-7.2
		H227c11.8,0,17.7,4.8,17.7,14.4v7.2C244.6,83.7,238.7,88.5,227,88.5 M221.1,81.3h5.9c5.9,0,8.8-2.4,8.8-7.2h-14.7
		c-5.9,0-8.8,1.2-8.8,3.6C212.3,80.1,215.2,81.3,221.1,81.3"/>
	<path class="st2" d="M267.6,52.6h5.9c3.4,0,6.4,0.4,8.8,1.2V38.2h8.8v35.9c0,9.6-5.9,14.4-17.7,14.4h-5.9
		c-11.8,0-17.7-4.8-17.7-14.4v-7.2C249.9,57.4,255.8,52.6,267.6,52.6 M273.4,59.7h-5.9c-5.9,0-8.8,2.4-8.8,7.2v7.2
		c0,4.8,2.9,7.2,8.8,7.2h5.9c5.9,0,8.8-2.4,8.8-7.2v-7.2C282.3,62.1,279.3,59.7,273.4,59.7"/>
	<path class="st2" d="M314.5,52.6h5.9c11.8,0,17.7,4.8,17.7,14.4v7.2c0,9.6-5.9,14.4-17.7,14.4h-5.9c-11.8,0-17.7-4.8-17.7-14.4
		v-7.2C296.8,57.4,302.7,52.6,314.5,52.6 M320.3,59.7h-5.9c-5.9,0-8.8,2.4-8.8,7.2v7.2c0,4.8,2.9,7.2,8.8,7.2h5.9
		c5.9,0,8.8-2.4,8.8-7.2v-7.2C329.2,62.1,326.2,59.7,320.3,59.7"/>
	<path class="st2" d="M359.1,52.6h17.7v7.2h-17.7c-5.9,0-8.8,1.2-8.8,3.6c0,2.4,5.4,3.8,16.2,4.1c10.8,0.4,16.2,3.8,16.2,10.2
		c0,7.2-5.9,10.8-17.7,10.8h-17.7v-7.2H365c5.9,0,8.8-1.2,8.8-3.6c0-2.4-5.4-3.8-16.2-4.1c-10.8-0.4-16.2-3.8-16.2-10.2
		C341.5,56.2,347.4,52.6,359.1,52.6"/>
</g>
<g>
	
		<radialGradient id="SVGID_00000054965572510476871750000017334852582848493749_" cx="23.0762" cy="118.4561" r="9.9264" gradientTransform="matrix(1.359301e-02 -0.9999 0.7948 1.080408e-02 -71.3808 140.2504)" gradientUnits="userSpaceOnUse">
		<stop  offset="0" style="stop-color:#F29100"/>
		<stop  offset="0.2136" style="stop-color:#F18C02"/>
		<stop  offset="0.4626" style="stop-color:#EE7E09"/>
		<stop  offset="0.7292" style="stop-color:#E96714"/>
		<stop  offset="1" style="stop-color:#E24723"/>
	</radialGradient>
	<polygon style="fill:url(#SVGID_00000054965572510476871750000017334852582848493749_);" points="16.5,107.2 20.2,105.1 
		38.4,105.5 38.6,124.2 38.1,124.6 33.7,125.3 17,125 16.2,124.7 	"/>
	
		<linearGradient id="SVGID_00000149349327653224775860000004075343842394181298_" gradientUnits="userSpaceOnUse" x1="23.6741" y1="121.5038" x2="36.7211" y2="106.4413">
		<stop  offset="0" style="stop-color:#F08322"/>
		<stop  offset="1" style="stop-color:#E24723"/>
	</linearGradient>
	<polygon style="fill:url(#SVGID_00000149349327653224775860000004075343842394181298_);" points="20.4,105.3 20.3,123.9 
		38.6,124.2 38.4,105.7 	"/>
	
		<linearGradient id="SVGID_00000028321872709704524740000014740409102225297555_" gradientUnits="userSpaceOnUse" x1="16.2489" y1="115.0512" x2="19.9975" y2="115.0512">
		<stop  offset="0" style="stop-color:#F08322"/>
		<stop  offset="0.2944" style="stop-color:#EB6D22"/>
		<stop  offset="0.7331" style="stop-color:#E45123"/>
		<stop  offset="0.9891" style="stop-color:#E24723"/>
	</linearGradient>
	<polygon style="fill:url(#SVGID_00000028321872709704524740000014740409102225297555_);" points="20,105.4 16.5,107.4 16.2,124.7 
		19.8,124 	"/>
	
		<linearGradient id="SVGID_00000067921913586780999480000014053426180983686306_" gradientUnits="userSpaceOnUse" x1="16.6981" y1="124.8642" x2="38.1084" y2="124.8642">
		<stop  offset="0" style="stop-color:#E24723"/>
		<stop  offset="0.9891" style="stop-color:#E24723"/>
	</linearGradient>
	<polygon style="fill:url(#SVGID_00000067921913586780999480000014053426180983686306_);" points="20.1,124.4 16.7,125.1 
		33.7,125.3 38.1,124.6 	"/>
</g>
<g>
	
		<radialGradient id="SVGID_00000013907717560203868050000007600691809288784522_" cx="109.6757" cy="117.5577" r="17.8604" gradientTransform="matrix(0.1925 -0.9813 0.6259 0.1228 14.981 210.7469)" gradientUnits="userSpaceOnUse">
		<stop  offset="0" style="stop-color:#F29100"/>
		<stop  offset="0.2136" style="stop-color:#F18C02"/>
		<stop  offset="0.4626" style="stop-color:#EE7E09"/>
		<stop  offset="0.7292" style="stop-color:#E96714"/>
		<stop  offset="1" style="stop-color:#E24723"/>
	</radialGradient>
	<polygon style="fill:url(#SVGID_00000013907717560203868050000007600691809288784522_);" points="95.3,106.2 106.8,103.5 
		128.4,104 130,128.2 129.4,128.6 113.6,129 96.7,129.2 96.1,128.6 	"/>
	
		<linearGradient id="SVGID_00000137855167312776815100000016950916157003631771_" gradientUnits="userSpaceOnUse" x1="111.4763" y1="124.2377" x2="127.3464" y2="105.9162">
		<stop  offset="0" style="stop-color:#F08322"/>
		<stop  offset="1" style="stop-color:#E24723"/>
	</linearGradient>
	<polygon style="fill:url(#SVGID_00000137855167312776815100000016950916157003631771_);" points="107.5,103.5 108.5,128.2 
		130,128.2 128.3,104 	"/>
	
		<linearGradient id="SVGID_00000013877549254859801220000002846488166937664677_" gradientUnits="userSpaceOnUse" x1="95.2628" y1="116.0901" x2="107.896" y2="116.0901">
		<stop  offset="0" style="stop-color:#F08322"/>
		<stop  offset="0.2944" style="stop-color:#EB6D22"/>
		<stop  offset="0.7331" style="stop-color:#E45123"/>
		<stop  offset="0.9891" style="stop-color:#E24723"/>
	</linearGradient>
	<polygon style="fill:url(#SVGID_00000013877549254859801220000002846488166937664677_);" points="106.8,103.5 95.3,106.2 
		96.1,128.6 107.9,128.2 	"/>
	
		<linearGradient id="SVGID_00000070829428565055391200000012875332417816850081_" gradientUnits="userSpaceOnUse" x1="96.5394" y1="128.946" x2="129.4002" y2="128.946">
		<stop  offset="0" style="stop-color:#E24723"/>
		<stop  offset="0.9891" style="stop-color:#E24723"/>
	</linearGradient>
	<polygon style="fill:url(#SVGID_00000070829428565055391200000012875332417816850081_);" points="112.9,129.3 96.5,129.1 
		108,128.6 129.4,128.6 	"/>
</g>
<g>
	
		<radialGradient id="SVGID_00000058550822739071632720000015291455852737417370_" cx="102.0401" cy="40.8484" r="13.4155" gradientUnits="userSpaceOnUse">
		<stop  offset="0" style="stop-color:#F29100"/>
		<stop  offset="0.2136" style="stop-color:#F18C02"/>
		<stop  offset="0.4626" style="stop-color:#EE7E09"/>
		<stop  offset="0.7292" style="stop-color:#E96714"/>
		<stop  offset="1" style="stop-color:#E24723"/>
	</radialGradient>
	<polygon style="fill:url(#SVGID_00000058550822739071632720000015291455852737417370_);" points="88.5,34.9 96.5,27.6 114.7,30.1 
		115.6,48.8 115.5,49.3 105.9,54.1 89.5,52.8 89,52.5 	"/>
	
		<linearGradient id="SVGID_00000178909523158374825910000017342806066845668008_" gradientUnits="userSpaceOnUse" x1="100.4404" y1="44.9091" x2="112.7905" y2="30.6512">
		<stop  offset="0" style="stop-color:#F08322"/>
		<stop  offset="1" style="stop-color:#E24723"/>
	</linearGradient>
	<polygon style="fill:url(#SVGID_00000178909523158374825910000017342806066845668008_);" points="96.7,27.8 97.4,47.4 115.6,48.8 
		114.7,30.2 	"/>
	
		<linearGradient id="SVGID_00000101066611094047936080000014096351951218355112_" gradientUnits="userSpaceOnUse" x1="88.4555" y1="40.2452" x2="97.0049" y2="40.2452">
		<stop  offset="0" style="stop-color:#F08322"/>
		<stop  offset="0.2944" style="stop-color:#EB6D22"/>
		<stop  offset="0.7331" style="stop-color:#E45123"/>
		<stop  offset="0.9891" style="stop-color:#E24723"/>
	</linearGradient>
	<polygon style="fill:url(#SVGID_00000101066611094047936080000014096351951218355112_);" points="96.4,28 88.5,35.1 89,52.5 
		97,47.4 	"/>
	
		<linearGradient id="SVGID_00000057865820855800662510000011550388320730167198_" gradientUnits="userSpaceOnUse" x1="89.2878" y1="50.9998" x2="115.4743" y2="50.9998">
		<stop  offset="0" style="stop-color:#E24723"/>
		<stop  offset="0.9891" style="stop-color:#E24723"/>
	</linearGradient>
	<polygon style="fill:url(#SVGID_00000057865820855800662510000011550388320730167198_);" points="97.3,47.9 89.3,52.9 105.9,54.1 
		115.5,49.3 	"/>
</g>
<g>
	
		<radialGradient id="SVGID_00000109707788984299268940000003440429843417642170_" cx="124.761" cy="-28.2552" r="24.4283" gradientTransform="matrix(-2.380278e-02 -0.8044 0.5134 -9.836503e-03 142.2375 174.3338)" gradientUnits="userSpaceOnUse">
		<stop  offset="0" style="stop-color:#CCCBCB"/>
		<stop  offset="1" style="stop-color:#989898"/>
	</radialGradient>
	<polygon style="fill:url(#SVGID_00000109707788984299268940000003440429843417642170_);" points="110.1,60.5 124,52.8 145.9,55.3 
		148.1,79.7 147.8,80.3 132.7,85 111.8,83.6 111,83.2 	"/>
	
		<linearGradient id="SVGID_00000070104395255686813030000000875470705501852050_" gradientUnits="userSpaceOnUse" x1="129.2229" y1="74.4226" x2="144.4876" y2="56.8">
		<stop  offset="0" style="stop-color:#E6E6E6"/>
		<stop  offset="1" style="stop-color:#CCCBCB"/>
	</linearGradient>
	<polygon style="fill:url(#SVGID_00000070104395255686813030000000875470705501852050_);" points="124.3,53.1 125.9,77.9 
		148.1,79.7 145.9,55.4 	"/>
	
		<linearGradient id="SVGID_00000152226117049442447150000013025640166435311537_" gradientUnits="userSpaceOnUse" x1="110.0953" y1="68.2376" x2="125.2715" y2="68.2376">
		<stop  offset="0" style="stop-color:#B3B3B2"/>
		<stop  offset="0.5171" style="stop-color:#A2A2A2"/>
		<stop  offset="0.9891" style="stop-color:#989898"/>
	</linearGradient>
	<polygon style="fill:url(#SVGID_00000152226117049442447150000013025640166435311537_);" points="123.8,53.3 110.1,60.8 111,83.2 
		125.3,77.9 	"/>
	
		<linearGradient id="SVGID_00000090282854601782069530000013799017385697090488_" gradientUnits="userSpaceOnUse" x1="111.799" y1="81.7994" x2="147.7855" y2="81.7994">
		<stop  offset="0" style="stop-color:#676767"/>
		<stop  offset="0.5032" style="stop-color:#585757"/>
		<stop  offset="0.9891" style="stop-color:#4E4D4D"/>
	</linearGradient>
	<polygon style="fill:url(#SVGID_00000090282854601782069530000013799017385697090488_);" points="125.6,78.6 111.8,83.6 132.7,85 
		147.8,80.3 	"/>
</g>
<g>
	
		<radialGradient id="SVGID_00000160191271071466406070000015308100152743786654_" cx="61.3806" cy="-60.9534" r="21.7619" gradientTransform="matrix(-2.260690e-02 -0.7341 0.4876 -8.975835e-03 117.6507 132.247)" gradientUnits="userSpaceOnUse">
		<stop  offset="0" style="stop-color:#CCCBCB"/>
		<stop  offset="1" style="stop-color:#989898"/>
	</radialGradient>
	<polygon style="fill:url(#SVGID_00000160191271071466406070000015308100152743786654_);" points="74.4,75.2 83.4,69.4 104.7,71.2 
		105.9,92.8 105.7,93.4 95.1,97 75,95.7 75,95 	"/>
	
		<linearGradient id="SVGID_00000017511366936978760470000002823087627074313864_" gradientUnits="userSpaceOnUse" x1="87.9471" y1="89.1066" x2="102.6801" y2="72.0978">
		<stop  offset="0" style="stop-color:#E6E6E6"/>
		<stop  offset="1" style="stop-color:#CCCBCB"/>
	</linearGradient>
	<polygon style="fill:url(#SVGID_00000017511366936978760470000002823087627074313864_);" points="83.6,69.6 84.4,92.1 105.9,92.8 
		104.7,71.3 	"/>
	
		<linearGradient id="SVGID_00000111885025028207365630000004695174823942405259_" gradientUnits="userSpaceOnUse" x1="74.3538" y1="82.4009" x2="83.7633" y2="82.4009">
		<stop  offset="0" style="stop-color:#B3B3B2"/>
		<stop  offset="0.5171" style="stop-color:#A2A2A2"/>
		<stop  offset="0.9891" style="stop-color:#989898"/>
	</linearGradient>
	<polygon style="fill:url(#SVGID_00000111885025028207365630000004695174823942405259_);" points="83.1,69.8 74.4,74.9 75,95 
		83.8,92.2 	"/>
	
		<linearGradient id="SVGID_00000150815178117257250910000018089322892918855296_" gradientUnits="userSpaceOnUse" x1="75.0089" y1="94.8496" x2="105.6406" y2="94.8496">
		<stop  offset="0" style="stop-color:#676767"/>
		<stop  offset="0.5032" style="stop-color:#585757"/>
		<stop  offset="0.9891" style="stop-color:#4E4D4D"/>
	</linearGradient>
	<polygon style="fill:url(#SVGID_00000150815178117257250910000018089322892918855296_);" points="84.1,92.7 75,95.7 95,97 
		105.6,93.4 	"/>
</g>
<g>
	
		<radialGradient id="SVGID_00000152943066455332686800000003012737910327253675_" cx="39.9123" cy="-44.5778" r="23.3142" gradientTransform="matrix(1.435525e-02 -0.8047 0.5133 1.451115e-02 81.1947 70.605)" gradientUnits="userSpaceOnUse">
		<stop  offset="0" style="stop-color:#CCCBCB"/>
		<stop  offset="1" style="stop-color:#989898"/>
	</radialGradient>
	<polygon style="fill:url(#SVGID_00000152943066455332686800000003012737910327253675_);" points="46.3,25.1 54.6,13.9 78.6,17.4 
		79.7,41.9 79.4,42.6 72.5,50.4 47.1,47.9 46.3,47.4 	"/>
	
		<linearGradient id="SVGID_00000171691179666493509410000015868234501054372021_" gradientUnits="userSpaceOnUse" x1="40.5168" y1="59.3963" x2="56.5878" y2="40.8428" gradientTransform="matrix(0.9989 4.740095e-02 -4.740095e-02 0.9989 21.9149 -25.0956)">
		<stop  offset="0" style="stop-color:#E6E6E6"/>
		<stop  offset="1" style="stop-color:#CCCBCB"/>
	</linearGradient>
	<polygon style="fill:url(#SVGID_00000171691179666493509410000015868234501054372021_);" points="54.9,14.2 55.4,39 79.7,41.9 
		78.6,17.6 	"/>
	
		<linearGradient id="SVGID_00000104665683844107360600000014019205374495644081_" gradientUnits="userSpaceOnUse" x1="26.7277" y1="54.5956" x2="35.7709" y2="54.5956" gradientTransform="matrix(0.9989 4.740095e-02 -4.740095e-02 0.9989 21.9149 -25.0956)">
		<stop  offset="0" style="stop-color:#B3B3B2"/>
		<stop  offset="0.5171" style="stop-color:#A2A2A2"/>
		<stop  offset="0.9891" style="stop-color:#989898"/>
	</linearGradient>
	<polygon style="fill:url(#SVGID_00000104665683844107360600000014019205374495644081_);" points="54.3,14.4 46.3,25.3 46.3,47.4 
		54.7,39.1 	"/>
	
		<linearGradient id="SVGID_00000062881291205229400880000010263233288310504577_" gradientUnits="userSpaceOnUse" x1="28.5392" y1="68.107" x2="60.5833" y2="68.107" gradientTransform="matrix(0.9989 4.740095e-02 -4.740095e-02 0.9989 21.9149 -25.0956)">
		<stop  offset="0" style="stop-color:#676767"/>
		<stop  offset="0.5032" style="stop-color:#585757"/>
		<stop  offset="0.9891" style="stop-color:#4E4D4D"/>
	</linearGradient>
	<polygon style="fill:url(#SVGID_00000062881291205229400880000010263233288310504577_);" points="55,39.7 47,47.9 72.4,50.4 
		79.4,42.5 	"/>
</g>
<g>
	
		<radialGradient id="SVGID_00000021094650007945231700000007324257766291178647_" cx="27.5558" cy="-38.004" r="20.7647" gradientTransform="matrix(1.169262e-02 -0.7486 0.5133 1.519725e-02 64.0438 93.9347)" gradientUnits="userSpaceOnUse">
		<stop  offset="0" style="stop-color:#CCCBCB"/>
		<stop  offset="0.277" style="stop-color:#C8C7C7"/>
		<stop  offset="0.555" style="stop-color:#BCBBBB"/>
		<stop  offset="0.8328" style="stop-color:#A8A8A8"/>
		<stop  offset="1" style="stop-color:#989898"/>
	</radialGradient>
	<polygon style="fill:url(#SVGID_00000021094650007945231700000007324257766291178647_);" points="33.7,60.7 40.2,52.9 63,55.1 
		63.3,77.6 63.1,78.2 57.6,83.2 34.5,81.9 33.7,81.5 	"/>
	
		<linearGradient id="SVGID_00000057864196216840525450000008740454877425530775_" gradientUnits="userSpaceOnUse" x1="27.0129" y1="66.5338" x2="43.0974" y2="47.9647" gradientTransform="matrix(0.9989 4.740097e-02 -4.409104e-02 0.9291 20.2625 9.726)">
		<stop  offset="0" style="stop-color:#E6E6E6"/>
		<stop  offset="1" style="stop-color:#CCCBCB"/>
	</linearGradient>
	<polygon style="fill:url(#SVGID_00000057864196216840525450000008740454877425530775_);" points="40.5,53.2 41,76.3 63.3,77.6 
		63,55.3 	"/>
	
		<linearGradient id="SVGID_00000142870935933912246230000013704201103929879976_" gradientUnits="userSpaceOnUse" x1="15.7912" y1="61.1218" x2="23.2073" y2="61.1218" gradientTransform="matrix(0.9989 4.740097e-02 -4.409104e-02 0.9291 20.2625 9.726)">
		<stop  offset="0" style="stop-color:#B3B3B2"/>
		<stop  offset="0.5171" style="stop-color:#A2A2A2"/>
		<stop  offset="0.9891" style="stop-color:#989898"/>
	</linearGradient>
	<polygon style="fill:url(#SVGID_00000142870935933912246230000013704201103929879976_);" points="39.9,53.4 33.6,61 33.7,81.5 
		40.3,76.4 	"/>
	
		<linearGradient id="SVGID_00000098215440486907335690000018392088222261013399_" gradientUnits="userSpaceOnUse" x1="17.6027" y1="74.0591" x2="45.9703" y2="74.0591" gradientTransform="matrix(0.9989 4.740097e-02 -4.409104e-02 0.9291 20.2625 9.726)">
		<stop  offset="0" style="stop-color:#676767"/>
		<stop  offset="0.5032" style="stop-color:#585757"/>
		<stop  offset="0.9891" style="stop-color:#4E4D4D"/>
	</linearGradient>
	<polygon style="fill:url(#SVGID_00000098215440486907335690000018392088222261013399_);" points="40.6,76.9 34.5,81.9 57.6,83.2 
		63,78.2 	"/>
</g>
<g>
	
		<radialGradient id="SVGID_00000041253975579811461770000017505654564749230247_" cx="62.9623" cy="96.2293" r="22.2641" gradientUnits="userSpaceOnUse">
		<stop  offset="0" style="stop-color:#F29100"/>
		<stop  offset="0.2136" style="stop-color:#F18C02"/>
		<stop  offset="0.4626" style="stop-color:#EE7E09"/>
		<stop  offset="0.7292" style="stop-color:#E96714"/>
		<stop  offset="1" style="stop-color:#E24723"/>
	</radialGradient>
	<polygon style="fill:url(#SVGID_00000041253975579811461770000017505654564749230247_);" points="50.1,83.1 59.9,76.9 87.3,78.8 
		88.5,107.6 88.5,108.1 75.5,111 50.7,110.4 50.5,109.8 	"/>
	
		<linearGradient id="SVGID_00000130631755979544007520000003980250592196606592_" gradientUnits="userSpaceOnUse" x1="65.4224" y1="102.6786" x2="84.9253" y2="80.1631">
		<stop  offset="0" style="stop-color:#F08322"/>
		<stop  offset="1" style="stop-color:#E24723"/>
	</linearGradient>
	<polygon style="fill:url(#SVGID_00000130631755979544007520000003980250592196606592_);" points="60.3,77.1 60.8,106.7 88.5,107.6 
		87.3,79 	"/>
	
		<linearGradient id="SVGID_00000151506369327614088720000004229320584690884778_" gradientUnits="userSpaceOnUse" x1="50.1061" y1="93.5336" x2="60.0515" y2="93.5336">
		<stop  offset="0" style="stop-color:#F08322"/>
		<stop  offset="0.2944" style="stop-color:#EB6D22"/>
		<stop  offset="0.7331" style="stop-color:#E45123"/>
		<stop  offset="0.9891" style="stop-color:#E24723"/>
	</linearGradient>
	<polygon style="fill:url(#SVGID_00000151506369327614088720000004229320584690884778_);" points="59.6,77.2 50.1,83.2 50.5,109.8 
		60.1,106.9 	"/>
	
		<linearGradient id="SVGID_00000057148463346334119400000009028705490696948632_" gradientUnits="userSpaceOnUse" x1="50.6651" y1="109.1532" x2="88.4555" y2="109.1532">
		<stop  offset="0" style="stop-color:#E24723"/>
		<stop  offset="0.9891" style="stop-color:#E24723"/>
	</linearGradient>
	<polygon style="fill:url(#SVGID_00000057148463346334119400000009028705490696948632_);" points="60.6,107.3 50.7,110.4 75.5,111 
		88.5,108.1 	"/>
</g>
<g>
	
		<radialGradient id="SVGID_00000159437435327199607620000014621459352730963606_" cx="83.5323" cy="58.6869" r="27.3188" gradientTransform="matrix(-2.380278e-02 -0.9997 0.5134 -1.222429e-02 55.3895 142.9129)" gradientUnits="userSpaceOnUse">
		<stop  offset="0" style="stop-color:#F29100"/>
		<stop  offset="1" style="stop-color:#E24723"/>
	</radialGradient>
	<polygon style="fill:url(#SVGID_00000159437435327199607620000014621459352730963606_);" points="66.8,42.3 79.7,30.7 108.6,34.6 
		110.1,64.4 109.9,65.2 94.6,72.8 68.4,70.8 67.6,70.3 	"/>
	
		<linearGradient id="SVGID_00000097499323345798684490000016049710188186155144_" gradientUnits="userSpaceOnUse" x1="85.9214" y1="58.2033" x2="105.565" y2="35.5254">
		<stop  offset="0" style="stop-color:#F08322"/>
		<stop  offset="1" style="stop-color:#E24723"/>
	</linearGradient>
	<polygon style="fill:url(#SVGID_00000097499323345798684490000016049710188186155144_);" points="80,31 81.1,62.1 110.1,64.4 
		108.6,34.8 	"/>
	
		<linearGradient id="SVGID_00000150085407587430287510000009092189570833937581_" gradientUnits="userSpaceOnUse" x1="66.8156" y1="50.7816" x2="80.4346" y2="50.7816">
		<stop  offset="0" style="stop-color:#F08322"/>
		<stop  offset="0.2944" style="stop-color:#EB6D22"/>
		<stop  offset="0.7331" style="stop-color:#E45123"/>
		<stop  offset="0.9891" style="stop-color:#E24723"/>
	</linearGradient>
	<polygon style="fill:url(#SVGID_00000150085407587430287510000009092189570833937581_);" points="79.4,31.3 66.8,42.6 67.6,70.3 
		80.4,62.2 	"/>
	
		<linearGradient id="SVGID_00000159453771449067599800000006339071211768923575_" gradientUnits="userSpaceOnUse" x1="68.3727" y1="67.8785" x2="109.8159" y2="67.8785">
		<stop  offset="0" style="stop-color:#E24723"/>
		<stop  offset="0.9891" style="stop-color:#E24723"/>
	</linearGradient>
	<polygon style="fill:url(#SVGID_00000159453771449067599800000006339071211768923575_);" points="80.8,63 68.4,70.8 94.5,72.8 
		109.8,65.2 	"/>
</g>
<g>
	<path class="st2" d="M162.5,106.6c1.5,0,2.7,0.3,3.4,1c0.8,0.7,1.2,1.6,1.2,2.8c0,0.6-0.1,1.1-0.3,1.6c-0.2,0.5-0.5,0.9-0.9,1.2
		c-0.4,0.3-0.9,0.6-1.4,0.8c-0.6,0.2-1.2,0.3-1.9,0.3h-2.4v5.2h-0.9v-12.9H162.5z M162.5,113.6c0.6,0,1.1-0.1,1.5-0.2
		c0.5-0.2,0.8-0.4,1.1-0.7c0.3-0.3,0.6-0.6,0.7-1c0.2-0.4,0.3-0.8,0.3-1.2c0-1-0.3-1.8-0.9-2.3s-1.5-0.8-2.7-0.8h-2.4v6.2H162.5z"/>
	<path class="st2" d="M172.4,110.3c0.7,0,1.2,0.1,1.8,0.3s1,0.5,1.3,0.9c0.4,0.4,0.6,0.9,0.8,1.5c0.2,0.6,0.3,1.2,0.3,1.9
		s-0.1,1.4-0.3,1.9s-0.5,1.1-0.8,1.5c-0.4,0.4-0.8,0.7-1.3,0.9s-1.1,0.3-1.8,0.3c-0.7,0-1.2-0.1-1.8-0.3c-0.5-0.2-1-0.5-1.3-0.9
		s-0.6-0.9-0.8-1.5s-0.3-1.2-0.3-1.9s0.1-1.4,0.3-1.9c0.2-0.6,0.5-1.1,0.8-1.5s0.8-0.7,1.3-0.9C171.1,110.4,171.7,110.3,172.4,110.3
		z M172.4,119c0.5,0,1-0.1,1.4-0.3s0.7-0.5,1-0.8s0.5-0.8,0.6-1.3c0.1-0.5,0.2-1,0.2-1.7c0-0.6-0.1-1.2-0.2-1.6
		c-0.1-0.5-0.3-0.9-0.6-1.3c-0.3-0.4-0.6-0.6-1-0.8s-0.9-0.3-1.4-0.3s-1,0.1-1.4,0.3c-0.4,0.2-0.7,0.5-1,0.8
		c-0.3,0.4-0.5,0.8-0.6,1.3s-0.2,1-0.2,1.6c0,0.6,0.1,1.2,0.2,1.7c0.1,0.5,0.3,0.9,0.6,1.3s0.6,0.6,1,0.8
		C171.4,118.9,171.8,119,172.4,119z"/>
	<path class="st2" d="M179.8,112.7c0.1-0.4,0.3-0.7,0.5-1c0.2-0.3,0.4-0.5,0.6-0.7c0.2-0.2,0.5-0.4,0.8-0.5s0.6-0.2,1-0.2
		c0.2,0,0.4,0,0.6,0.1s0.3,0.1,0.5,0.2l-0.1,0.6c0,0.1-0.1,0.1-0.2,0.1c-0.1,0-0.2,0-0.3-0.1s-0.3-0.1-0.6-0.1
		c-0.4,0-0.7,0.1-0.9,0.2c-0.3,0.1-0.5,0.3-0.7,0.5c-0.2,0.2-0.4,0.5-0.6,0.8c-0.2,0.3-0.3,0.7-0.4,1.1v5.9H179v-9.1h0.5
		c0.1,0,0.2,0,0.2,0.1c0,0,0.1,0.1,0.1,0.2L179.8,112.7z"/>
	<path class="st2" d="M187.9,119.7c-0.6,0-1.1-0.2-1.4-0.5c-0.3-0.3-0.5-0.9-0.5-1.6v-6.2h-1.3c-0.1,0-0.1,0-0.2-0.1
		c0,0-0.1-0.1-0.1-0.2v-0.3l1.6-0.1l0.2-3.3c0-0.1,0-0.1,0.1-0.1c0,0,0.1-0.1,0.2-0.1h0.4v3.5h2.9v0.6h-2.9v6.2c0,0.2,0,0.5,0.1,0.6
		c0.1,0.2,0.2,0.3,0.3,0.4s0.2,0.2,0.4,0.3c0.2,0.1,0.3,0.1,0.5,0.1c0.2,0,0.4,0,0.6-0.1c0.2-0.1,0.3-0.1,0.4-0.2
		c0.1-0.1,0.2-0.1,0.3-0.2c0.1-0.1,0.1-0.1,0.2-0.1c0,0,0.1,0,0.1,0.1l0.2,0.4c-0.2,0.3-0.5,0.5-0.9,0.6S188.3,119.7,187.9,119.7z"
		/>
	<path class="st2" d="M191.5,111.8c0.5-0.5,1-0.8,1.5-1.1c0.5-0.2,1.1-0.4,1.8-0.4c0.5,0,0.9,0.1,1.3,0.2c0.4,0.2,0.7,0.4,0.9,0.7
		c0.2,0.3,0.4,0.6,0.5,1.1c0.1,0.4,0.2,0.9,0.2,1.4v5.9h-0.3c-0.2,0-0.3-0.1-0.3-0.3l-0.1-1.2c-0.2,0.2-0.5,0.5-0.7,0.7
		s-0.5,0.4-0.8,0.5s-0.6,0.2-0.9,0.3s-0.7,0.1-1,0.1c-0.3,0-0.6,0-0.9-0.1c-0.3-0.1-0.6-0.2-0.8-0.4c-0.2-0.2-0.4-0.4-0.5-0.7
		c-0.1-0.3-0.2-0.7-0.2-1.1c0-0.4,0.1-0.7,0.3-1.1c0.2-0.3,0.6-0.6,1-0.9s1.1-0.4,1.8-0.6c0.7-0.1,1.6-0.2,2.6-0.3v-1
		c0-0.8-0.2-1.5-0.5-1.9s-0.9-0.7-1.6-0.7c-0.4,0-0.8,0.1-1.1,0.2s-0.6,0.3-0.8,0.4c-0.2,0.1-0.4,0.3-0.5,0.4
		c-0.1,0.1-0.2,0.2-0.3,0.2c-0.1,0-0.1,0-0.2,0c0,0-0.1-0.1-0.1-0.1L191.5,111.8z M196.8,115.2c-0.9,0-1.6,0.1-2.2,0.2
		c-0.6,0.1-1.1,0.3-1.5,0.4s-0.7,0.4-0.9,0.7c-0.2,0.3-0.3,0.5-0.3,0.9c0,0.3,0.1,0.6,0.2,0.8s0.2,0.4,0.4,0.5
		c0.2,0.1,0.4,0.2,0.6,0.3c0.2,0.1,0.4,0.1,0.7,0.1c0.4,0,0.7,0,1-0.1c0.3-0.1,0.6-0.2,0.8-0.3s0.5-0.3,0.7-0.5
		c0.2-0.2,0.4-0.4,0.6-0.6V115.2z"/>
	<path class="st2" d="M201.5,106.3v13.3h-0.9v-13.3H201.5z"/>
	<path class="st2" d="M216.7,106.3v13.3h-0.5c-0.2,0-0.2-0.1-0.3-0.2l-0.1-1.4c-0.4,0.5-0.9,1-1.4,1.3c-0.5,0.3-1.1,0.5-1.8,0.5
		c-1.1,0-2-0.4-2.6-1.2c-0.6-0.8-0.9-1.9-0.9-3.5c0-0.7,0.1-1.3,0.3-1.9c0.2-0.6,0.4-1.1,0.8-1.5c0.3-0.4,0.7-0.8,1.2-1
		c0.5-0.2,1.1-0.4,1.7-0.4c0.6,0,1.1,0.1,1.6,0.3c0.5,0.2,0.8,0.6,1.2,1v-5.4H216.7z M215.8,112.4c-0.3-0.5-0.7-0.9-1.2-1.1
		c-0.4-0.2-0.9-0.3-1.5-0.3c-0.5,0-1,0.1-1.4,0.3c-0.4,0.2-0.7,0.5-1,0.8s-0.5,0.8-0.6,1.3c-0.1,0.5-0.2,1-0.2,1.6
		c0,1.4,0.2,2.4,0.7,3c0.5,0.6,1.2,1,2.2,1c0.6,0,1.1-0.2,1.6-0.5c0.5-0.3,0.9-0.7,1.3-1.3V112.4z"/>
	<path class="st2" d="M220,114.7v0.2c0,0.7,0.1,1.3,0.2,1.8c0.2,0.5,0.4,1,0.7,1.3c0.3,0.4,0.6,0.6,1.1,0.8c0.4,0.2,0.9,0.3,1.4,0.3
		c0.5,0,0.9-0.1,1.2-0.2s0.6-0.2,0.8-0.3c0.2-0.1,0.4-0.2,0.5-0.3c0.1-0.1,0.2-0.2,0.3-0.2c0.1,0,0.1,0,0.2,0.1l0.2,0.3
		c-0.1,0.2-0.3,0.4-0.6,0.5c-0.2,0.2-0.5,0.3-0.8,0.4c-0.3,0.1-0.6,0.2-1,0.3c-0.3,0.1-0.7,0.1-1,0.1c-0.6,0-1.2-0.1-1.7-0.3
		c-0.5-0.2-1-0.5-1.3-0.9c-0.4-0.4-0.6-0.9-0.8-1.5c-0.2-0.6-0.3-1.3-0.3-2.1c0-0.7,0.1-1.3,0.3-1.8c0.2-0.6,0.5-1,0.8-1.4
		c0.4-0.4,0.8-0.7,1.3-0.9c0.5-0.2,1.1-0.3,1.7-0.3c0.5,0,1,0.1,1.4,0.3c0.4,0.2,0.8,0.4,1.1,0.8c0.3,0.3,0.6,0.8,0.8,1.2
		c0.2,0.5,0.3,1.1,0.3,1.7c0,0.1,0,0.2-0.1,0.3s-0.1,0.1-0.2,0.1H220z M226.1,114.1c0-0.5-0.1-0.9-0.2-1.3c-0.1-0.4-0.3-0.7-0.6-1
		c-0.3-0.3-0.5-0.5-0.9-0.6c-0.3-0.1-0.7-0.2-1.1-0.2c-0.5,0-0.9,0.1-1.3,0.2c-0.4,0.1-0.7,0.4-1,0.6c-0.3,0.3-0.5,0.6-0.7,1
		c-0.2,0.4-0.3,0.8-0.3,1.3H226.1z"/>
	<path class="st2" d="M241.3,106.3v13.3h-0.5c-0.2,0-0.2-0.1-0.3-0.2l-0.1-1.4c-0.4,0.5-0.9,1-1.4,1.3c-0.5,0.3-1.1,0.5-1.8,0.5
		c-1.1,0-2-0.4-2.6-1.2c-0.6-0.8-0.9-1.9-0.9-3.5c0-0.7,0.1-1.3,0.3-1.9c0.2-0.6,0.4-1.1,0.8-1.5c0.3-0.4,0.7-0.8,1.2-1
		c0.5-0.2,1.1-0.4,1.7-0.4c0.6,0,1.1,0.1,1.6,0.3c0.5,0.2,0.8,0.6,1.2,1v-5.4H241.3z M240.4,112.4c-0.3-0.5-0.7-0.9-1.2-1.1
		c-0.4-0.2-0.9-0.3-1.5-0.3c-0.5,0-1,0.1-1.4,0.3c-0.4,0.2-0.7,0.5-1,0.8s-0.5,0.8-0.6,1.3c-0.1,0.5-0.2,1-0.2,1.6
		c0,1.4,0.2,2.4,0.7,3c0.5,0.6,1.2,1,2.2,1c0.6,0,1.1-0.2,1.6-0.5c0.5-0.3,0.9-0.7,1.3-1.3V112.4z"/>
	<path class="st2" d="M244,111.8c0.5-0.5,1-0.8,1.5-1.1c0.5-0.2,1.1-0.4,1.8-0.4c0.5,0,0.9,0.1,1.3,0.2c0.4,0.2,0.7,0.4,0.9,0.7
		c0.2,0.3,0.4,0.6,0.5,1.1c0.1,0.4,0.2,0.9,0.2,1.4v5.9h-0.3c-0.2,0-0.3-0.1-0.3-0.3l-0.1-1.2c-0.2,0.2-0.5,0.5-0.7,0.7
		s-0.5,0.4-0.8,0.5s-0.6,0.2-0.9,0.3s-0.7,0.1-1,0.1c-0.3,0-0.6,0-0.9-0.1c-0.3-0.1-0.6-0.2-0.8-0.4c-0.2-0.2-0.4-0.4-0.5-0.7
		c-0.1-0.3-0.2-0.7-0.2-1.1c0-0.4,0.1-0.7,0.3-1.1c0.2-0.3,0.6-0.6,1-0.9s1.1-0.4,1.8-0.6c0.7-0.1,1.6-0.2,2.6-0.3v-1
		c0-0.8-0.2-1.5-0.5-1.9s-0.9-0.7-1.6-0.7c-0.4,0-0.8,0.1-1.1,0.2s-0.6,0.3-0.8,0.4c-0.2,0.1-0.4,0.3-0.5,0.4
		c-0.1,0.1-0.2,0.2-0.3,0.2c-0.1,0-0.1,0-0.2,0c0,0-0.1-0.1-0.1-0.1L244,111.8z M249.4,115.2c-0.9,0-1.6,0.1-2.2,0.2
		c-0.6,0.1-1.1,0.3-1.5,0.4s-0.7,0.4-0.9,0.7c-0.2,0.3-0.3,0.5-0.3,0.9c0,0.3,0.1,0.6,0.2,0.8s0.2,0.4,0.4,0.5
		c0.2,0.1,0.4,0.2,0.6,0.3c0.2,0.1,0.4,0.1,0.7,0.1c0.4,0,0.7,0,1-0.1c0.3-0.1,0.6-0.2,0.8-0.3s0.5-0.3,0.7-0.5
		c0.2-0.2,0.4-0.4,0.6-0.6V115.2z"/>
	<path class="st2" d="M260.2,106.3v13.3h-0.5c-0.2,0-0.2-0.1-0.3-0.2l-0.1-1.4c-0.4,0.5-0.9,1-1.4,1.3c-0.5,0.3-1.1,0.5-1.8,0.5
		c-1.1,0-2-0.4-2.6-1.2c-0.6-0.8-0.9-1.9-0.9-3.5c0-0.7,0.1-1.3,0.3-1.9c0.2-0.6,0.4-1.1,0.8-1.5c0.3-0.4,0.7-0.8,1.2-1
		c0.5-0.2,1.1-0.4,1.7-0.4c0.6,0,1.1,0.1,1.6,0.3c0.5,0.2,0.8,0.6,1.2,1v-5.4H260.2z M259.3,112.4c-0.3-0.5-0.7-0.9-1.2-1.1
		c-0.4-0.2-0.9-0.3-1.5-0.3c-0.5,0-1,0.1-1.4,0.3c-0.4,0.2-0.7,0.5-1,0.8s-0.5,0.8-0.6,1.3c-0.1,0.5-0.2,1-0.2,1.6
		c0,1.4,0.2,2.4,0.7,3c0.5,0.6,1.2,1,2.2,1c0.6,0,1.1-0.2,1.6-0.5c0.5-0.3,0.9-0.7,1.3-1.3V112.4z"/>
	<path class="st2" d="M266.8,110.3c0.7,0,1.2,0.1,1.8,0.3s1,0.5,1.3,0.9c0.4,0.4,0.6,0.9,0.8,1.5c0.2,0.6,0.3,1.2,0.3,1.9
		s-0.1,1.4-0.3,1.9s-0.5,1.1-0.8,1.5c-0.4,0.4-0.8,0.7-1.3,0.9s-1.1,0.3-1.8,0.3c-0.7,0-1.2-0.1-1.8-0.3c-0.5-0.2-1-0.5-1.3-0.9
		s-0.6-0.9-0.8-1.5s-0.3-1.2-0.3-1.9s0.1-1.4,0.3-1.9c0.2-0.6,0.5-1.1,0.8-1.5s0.8-0.7,1.3-0.9C265.6,110.4,266.2,110.3,266.8,110.3
		z M266.8,119c0.5,0,1-0.1,1.4-0.3s0.7-0.5,1-0.8s0.5-0.8,0.6-1.3c0.1-0.5,0.2-1,0.2-1.7c0-0.6-0.1-1.2-0.2-1.6
		c-0.1-0.5-0.3-0.9-0.6-1.3c-0.3-0.4-0.6-0.6-1-0.8s-0.9-0.3-1.4-0.3s-1,0.1-1.4,0.3c-0.4,0.2-0.7,0.5-1,0.8
		c-0.3,0.4-0.5,0.8-0.6,1.3s-0.2,1-0.2,1.6c0,0.6,0.1,1.2,0.2,1.7c0.1,0.5,0.3,0.9,0.6,1.3s0.6,0.6,1,0.8
		C265.8,118.9,266.3,119,266.8,119z"/>
	<path class="st2" d="M278.4,111.6c0,0.1-0.1,0.1-0.2,0.1c-0.1,0-0.2,0-0.3-0.1c-0.1-0.1-0.2-0.2-0.4-0.3s-0.4-0.2-0.6-0.3
		s-0.6-0.1-0.9-0.1c-0.3,0-0.6,0-0.9,0.1c-0.3,0.1-0.5,0.2-0.7,0.4c-0.2,0.2-0.3,0.3-0.4,0.6c-0.1,0.2-0.2,0.4-0.2,0.7
		c0,0.3,0.1,0.5,0.2,0.7s0.3,0.4,0.6,0.5c0.2,0.1,0.5,0.3,0.8,0.3c0.3,0.1,0.6,0.2,0.9,0.3c0.3,0.1,0.6,0.2,0.9,0.3
		c0.3,0.1,0.6,0.3,0.8,0.4s0.4,0.4,0.6,0.6c0.1,0.3,0.2,0.6,0.2,0.9c0,0.4-0.1,0.8-0.2,1.1c-0.1,0.3-0.3,0.6-0.6,0.9s-0.6,0.4-1,0.6
		s-0.9,0.2-1.4,0.2c-0.6,0-1.2-0.1-1.7-0.3c-0.5-0.2-0.9-0.5-1.2-0.8l0.2-0.3c0,0,0.1-0.1,0.1-0.1c0,0,0.1,0,0.2,0
		c0.1,0,0.2,0,0.3,0.1c0.1,0.1,0.3,0.2,0.5,0.3s0.4,0.2,0.7,0.3c0.3,0.1,0.6,0.1,1,0.1c0.4,0,0.7-0.1,1-0.2c0.3-0.1,0.5-0.3,0.7-0.4
		s0.3-0.4,0.4-0.6s0.2-0.5,0.2-0.8c0-0.3-0.1-0.6-0.2-0.8c-0.1-0.2-0.3-0.4-0.6-0.5c-0.2-0.1-0.5-0.3-0.8-0.4
		c-0.3-0.1-0.6-0.2-0.9-0.3c-0.3-0.1-0.6-0.2-0.9-0.3c-0.3-0.1-0.6-0.3-0.8-0.4c-0.2-0.2-0.4-0.4-0.6-0.6c-0.1-0.3-0.2-0.6-0.2-0.9
		c0-0.3,0.1-0.6,0.2-0.9c0.1-0.3,0.3-0.6,0.6-0.8s0.6-0.4,0.9-0.5s0.8-0.2,1.3-0.2c0.6,0,1,0.1,1.5,0.2c0.4,0.2,0.8,0.4,1.2,0.7
		L278.4,111.6z"/>
	<path class="st2" d="M285.9,111.8c0.5-0.5,1-0.8,1.5-1.1c0.5-0.2,1.1-0.4,1.8-0.4c0.5,0,0.9,0.1,1.3,0.2c0.4,0.2,0.7,0.4,0.9,0.7
		c0.2,0.3,0.4,0.6,0.5,1.1c0.1,0.4,0.2,0.9,0.2,1.4v5.9h-0.3c-0.2,0-0.3-0.1-0.3-0.3l-0.1-1.2c-0.2,0.2-0.5,0.5-0.7,0.7
		s-0.5,0.4-0.8,0.5s-0.6,0.2-0.9,0.3s-0.7,0.1-1,0.1c-0.3,0-0.6,0-0.9-0.1c-0.3-0.1-0.6-0.2-0.8-0.4c-0.2-0.2-0.4-0.4-0.5-0.7
		c-0.1-0.3-0.2-0.7-0.2-1.1c0-0.4,0.1-0.7,0.3-1.1c0.2-0.3,0.6-0.6,1-0.9s1.1-0.4,1.8-0.6c0.7-0.1,1.6-0.2,2.6-0.3v-1
		c0-0.8-0.2-1.5-0.5-1.9s-0.9-0.7-1.6-0.7c-0.4,0-0.8,0.1-1.1,0.2s-0.6,0.3-0.8,0.4c-0.2,0.1-0.4,0.3-0.5,0.4
		c-0.1,0.1-0.2,0.2-0.3,0.2c-0.1,0-0.1,0-0.2,0c0,0-0.1-0.1-0.1-0.1L285.9,111.8z M291.3,115.2c-0.9,0-1.6,0.1-2.2,0.2
		c-0.6,0.1-1.1,0.3-1.5,0.4s-0.7,0.4-0.9,0.7c-0.2,0.3-0.3,0.5-0.3,0.9c0,0.3,0.1,0.6,0.2,0.8s0.2,0.4,0.4,0.5
		c0.2,0.1,0.4,0.2,0.6,0.3c0.2,0.1,0.4,0.1,0.7,0.1c0.4,0,0.7,0,1-0.1c0.3-0.1,0.6-0.2,0.8-0.3s0.5-0.3,0.7-0.5
		c0.2-0.2,0.4-0.4,0.6-0.6V115.2z"/>
	<path class="st2" d="M295.9,112.1c0.4-0.5,0.9-1,1.4-1.3c0.5-0.3,1.1-0.5,1.8-0.5c0.5,0,1,0.1,1.5,0.3s0.8,0.5,1.1,0.9
		c0.3,0.4,0.5,0.8,0.7,1.4c0.2,0.6,0.2,1.2,0.2,1.9c0,0.7-0.1,1.4-0.3,2c-0.2,0.6-0.4,1.1-0.8,1.6c-0.3,0.4-0.8,0.8-1.2,1
		c-0.5,0.2-1,0.4-1.7,0.4c-0.6,0-1.2-0.1-1.7-0.4s-0.8-0.6-1.2-1.1l-0.1,1.1c0,0.2-0.1,0.2-0.2,0.2H295v-13.3h0.9V112.1z
		 M295.9,117.6c0.4,0.5,0.7,0.9,1.2,1.1c0.4,0.2,0.9,0.3,1.4,0.3c0.5,0,1-0.1,1.4-0.3c0.4-0.2,0.7-0.5,1-0.8s0.5-0.8,0.6-1.3
		s0.2-1.1,0.2-1.7c0-1.3-0.3-2.2-0.8-2.8c-0.5-0.6-1.2-1-2.1-1c-0.6,0-1.2,0.2-1.7,0.5c-0.5,0.3-0.9,0.7-1.3,1.3V117.6z"/>
	<path class="st2" d="M305.4,114.7v0.2c0,0.7,0.1,1.3,0.2,1.8c0.2,0.5,0.4,1,0.7,1.3c0.3,0.4,0.6,0.6,1.1,0.8
		c0.4,0.2,0.9,0.3,1.4,0.3c0.5,0,0.9-0.1,1.2-0.2s0.6-0.2,0.8-0.3c0.2-0.1,0.4-0.2,0.5-0.3c0.1-0.1,0.2-0.2,0.3-0.2
		c0.1,0,0.1,0,0.2,0.1l0.2,0.3c-0.1,0.2-0.3,0.4-0.6,0.5c-0.2,0.2-0.5,0.3-0.8,0.4c-0.3,0.1-0.6,0.2-1,0.3c-0.3,0.1-0.7,0.1-1,0.1
		c-0.6,0-1.2-0.1-1.7-0.3c-0.5-0.2-1-0.5-1.3-0.9c-0.4-0.4-0.6-0.9-0.8-1.5c-0.2-0.6-0.3-1.3-0.3-2.1c0-0.7,0.1-1.3,0.3-1.8
		c0.2-0.6,0.5-1,0.8-1.4c0.4-0.4,0.8-0.7,1.3-0.9c0.5-0.2,1.1-0.3,1.7-0.3c0.5,0,1,0.1,1.4,0.3c0.4,0.2,0.8,0.4,1.1,0.8
		c0.3,0.3,0.6,0.8,0.8,1.2c0.2,0.5,0.3,1.1,0.3,1.7c0,0.1,0,0.2-0.1,0.3s-0.1,0.1-0.2,0.1H305.4z M311.5,114.1
		c0-0.5-0.1-0.9-0.2-1.3c-0.1-0.4-0.3-0.7-0.6-1c-0.3-0.3-0.5-0.5-0.9-0.6c-0.3-0.1-0.7-0.2-1.1-0.2c-0.5,0-0.9,0.1-1.3,0.2
		c-0.4,0.1-0.7,0.4-1,0.6c-0.3,0.3-0.5,0.6-0.7,1c-0.2,0.4-0.3,0.8-0.3,1.3H311.5z"/>
	<path class="st2" d="M315.5,112.7c0.1-0.4,0.3-0.7,0.5-1c0.2-0.3,0.4-0.5,0.6-0.7c0.2-0.2,0.5-0.4,0.8-0.5s0.6-0.2,1-0.2
		c0.2,0,0.4,0,0.6,0.1s0.3,0.1,0.5,0.2l-0.1,0.6c0,0.1-0.1,0.1-0.2,0.1c-0.1,0-0.2,0-0.3-0.1s-0.3-0.1-0.6-0.1
		c-0.4,0-0.7,0.1-0.9,0.2c-0.3,0.1-0.5,0.3-0.7,0.5c-0.2,0.2-0.4,0.5-0.6,0.8c-0.2,0.3-0.3,0.7-0.4,1.1v5.9h-0.9v-9.1h0.5
		c0.1,0,0.2,0,0.2,0.1c0,0,0.1,0.1,0.1,0.2L315.5,112.7z"/>
	<path class="st2" d="M323.6,119.7c-0.6,0-1.1-0.2-1.4-0.5c-0.3-0.3-0.5-0.9-0.5-1.6v-6.2h-1.3c-0.1,0-0.1,0-0.2-0.1
		c0,0-0.1-0.1-0.1-0.2v-0.3l1.6-0.1l0.2-3.3c0-0.1,0-0.1,0.1-0.1c0,0,0.1-0.1,0.2-0.1h0.4v3.5h2.9v0.6h-2.9v6.2c0,0.2,0,0.5,0.1,0.6
		c0.1,0.2,0.2,0.3,0.3,0.4s0.2,0.2,0.4,0.3c0.2,0.1,0.3,0.1,0.5,0.1c0.2,0,0.4,0,0.6-0.1c0.2-0.1,0.3-0.1,0.4-0.2
		c0.1-0.1,0.2-0.1,0.3-0.2c0.1-0.1,0.1-0.1,0.2-0.1c0,0,0.1,0,0.1,0.1l0.2,0.4c-0.2,0.3-0.5,0.5-0.9,0.6S324,119.7,323.6,119.7z"/>
	<path class="st2" d="M331,110.3c0.7,0,1.2,0.1,1.8,0.3s1,0.5,1.3,0.9c0.4,0.4,0.6,0.9,0.8,1.5c0.2,0.6,0.3,1.2,0.3,1.9
		s-0.1,1.4-0.3,1.9s-0.5,1.1-0.8,1.5c-0.4,0.4-0.8,0.7-1.3,0.9s-1.1,0.3-1.8,0.3c-0.7,0-1.2-0.1-1.8-0.3c-0.5-0.2-1-0.5-1.3-0.9
		s-0.6-0.9-0.8-1.5s-0.3-1.2-0.3-1.9s0.1-1.4,0.3-1.9c0.2-0.6,0.5-1.1,0.8-1.5s0.8-0.7,1.3-0.9C329.7,110.4,330.3,110.3,331,110.3z
		 M331,119c0.5,0,1-0.1,1.4-0.3s0.7-0.5,1-0.8s0.5-0.8,0.6-1.3c0.1-0.5,0.2-1,0.2-1.7c0-0.6-0.1-1.2-0.2-1.6
		c-0.1-0.5-0.3-0.9-0.6-1.3c-0.3-0.4-0.6-0.6-1-0.8s-0.9-0.3-1.4-0.3s-1,0.1-1.4,0.3c-0.4,0.2-0.7,0.5-1,0.8
		c-0.3,0.4-0.5,0.8-0.6,1.3s-0.2,1-0.2,1.6c0,0.6,0.1,1.2,0.2,1.7c0.1,0.5,0.3,0.9,0.6,1.3s0.6,0.6,1,0.8
		C329.9,118.9,330.4,119,331,119z"/>
	<path class="st2" d="M342.6,111.6c0,0.1-0.1,0.1-0.2,0.1c-0.1,0-0.2,0-0.3-0.1c-0.1-0.1-0.2-0.2-0.4-0.3s-0.4-0.2-0.6-0.3
		s-0.6-0.1-0.9-0.1c-0.3,0-0.6,0-0.9,0.1c-0.3,0.1-0.5,0.2-0.7,0.4c-0.2,0.2-0.3,0.3-0.4,0.6c-0.1,0.2-0.2,0.4-0.2,0.7
		c0,0.3,0.1,0.5,0.2,0.7s0.3,0.4,0.6,0.5c0.2,0.1,0.5,0.3,0.8,0.3c0.3,0.1,0.6,0.2,0.9,0.3c0.3,0.1,0.6,0.2,0.9,0.3
		c0.3,0.1,0.6,0.3,0.8,0.4s0.4,0.4,0.6,0.6c0.1,0.3,0.2,0.6,0.2,0.9c0,0.4-0.1,0.8-0.2,1.1c-0.1,0.3-0.3,0.6-0.6,0.9s-0.6,0.4-1,0.6
		s-0.9,0.2-1.4,0.2c-0.6,0-1.2-0.1-1.7-0.3c-0.5-0.2-0.9-0.5-1.2-0.8l0.2-0.3c0,0,0.1-0.1,0.1-0.1c0,0,0.1,0,0.2,0
		c0.1,0,0.2,0,0.3,0.1c0.1,0.1,0.3,0.2,0.5,0.3s0.4,0.2,0.7,0.3c0.3,0.1,0.6,0.1,1,0.1c0.4,0,0.7-0.1,1-0.2c0.3-0.1,0.5-0.3,0.7-0.4
		s0.3-0.4,0.4-0.6s0.2-0.5,0.2-0.8c0-0.3-0.1-0.6-0.2-0.8c-0.1-0.2-0.3-0.4-0.6-0.5c-0.2-0.1-0.5-0.3-0.8-0.4
		c-0.3-0.1-0.6-0.2-0.9-0.3c-0.3-0.1-0.6-0.2-0.9-0.3c-0.3-0.1-0.6-0.3-0.8-0.4c-0.2-0.2-0.4-0.4-0.6-0.6c-0.1-0.3-0.2-0.6-0.2-0.9
		c0-0.3,0.1-0.6,0.2-0.9c0.1-0.3,0.3-0.6,0.6-0.8s0.6-0.4,0.9-0.5s0.8-0.2,1.3-0.2c0.6,0,1,0.1,1.5,0.2c0.4,0.2,0.8,0.4,1.2,0.7
		L342.6,111.6z"/>
	<path class="st2" d="M357.4,106.3v13.3h-0.5c-0.2,0-0.2-0.1-0.3-0.2l-0.1-1.4c-0.4,0.5-0.9,1-1.4,1.3c-0.5,0.3-1.1,0.5-1.8,0.5
		c-1.1,0-2-0.4-2.6-1.2c-0.6-0.8-0.9-1.9-0.9-3.5c0-0.7,0.1-1.3,0.3-1.9c0.2-0.6,0.4-1.1,0.8-1.5c0.3-0.4,0.7-0.8,1.2-1
		c0.5-0.2,1.1-0.4,1.7-0.4c0.6,0,1.1,0.1,1.6,0.3c0.5,0.2,0.8,0.6,1.2,1v-5.4H357.4z M356.5,112.4c-0.3-0.5-0.7-0.9-1.2-1.1
		c-0.4-0.2-0.9-0.3-1.5-0.3c-0.5,0-1,0.1-1.4,0.3c-0.4,0.2-0.7,0.5-1,0.8s-0.5,0.8-0.6,1.3c-0.1,0.5-0.2,1-0.2,1.6
		c0,1.4,0.2,2.4,0.7,3c0.5,0.6,1.2,1,2.2,1c0.6,0,1.1-0.2,1.6-0.5c0.5-0.3,0.9-0.7,1.3-1.3V112.4z"/>
	<path class="st2" d="M360.1,111.8c0.5-0.5,1-0.8,1.5-1.1c0.5-0.2,1.1-0.4,1.8-0.4c0.5,0,0.9,0.1,1.3,0.2c0.4,0.2,0.7,0.4,0.9,0.7
		c0.2,0.3,0.4,0.6,0.5,1.1c0.1,0.4,0.2,0.9,0.2,1.4v5.9H366c-0.2,0-0.3-0.1-0.3-0.3l-0.1-1.2c-0.2,0.2-0.5,0.5-0.7,0.7
		s-0.5,0.4-0.8,0.5s-0.6,0.2-0.9,0.3s-0.7,0.1-1,0.1c-0.3,0-0.6,0-0.9-0.1c-0.3-0.1-0.6-0.2-0.8-0.4c-0.2-0.2-0.4-0.4-0.5-0.7
		c-0.1-0.3-0.2-0.7-0.2-1.1c0-0.4,0.1-0.7,0.3-1.1c0.2-0.3,0.6-0.6,1-0.9s1.1-0.4,1.8-0.6c0.7-0.1,1.6-0.2,2.6-0.3v-1
		c0-0.8-0.2-1.5-0.5-1.9s-0.9-0.7-1.6-0.7c-0.4,0-0.8,0.1-1.1,0.2s-0.6,0.3-0.8,0.4c-0.2,0.1-0.4,0.3-0.5,0.4
		c-0.1,0.1-0.2,0.2-0.3,0.2c-0.1,0-0.1,0-0.2,0c0,0-0.1-0.1-0.1-0.1L360.1,111.8z M365.5,115.2c-0.9,0-1.6,0.1-2.2,0.2
		c-0.6,0.1-1.1,0.3-1.5,0.4s-0.7,0.4-0.9,0.7c-0.2,0.3-0.3,0.5-0.3,0.9c0,0.3,0.1,0.6,0.2,0.8s0.2,0.4,0.4,0.5
		c0.2,0.1,0.4,0.2,0.6,0.3c0.2,0.1,0.4,0.1,0.7,0.1c0.4,0,0.7,0,1-0.1c0.3-0.1,0.6-0.2,0.8-0.3s0.5-0.3,0.7-0.5
		c0.2-0.2,0.4-0.4,0.6-0.6V115.2z"/>
	<path class="st2" d="M383.9,119.6h-0.7c-0.1,0-0.2,0-0.2-0.1c-0.1,0-0.1-0.1-0.1-0.2l-1.5-3.8h-6.4l-1.5,3.8c0,0.1-0.1,0.1-0.1,0.2
		c-0.1,0-0.1,0.1-0.2,0.1h-0.7l5.3-12.9h0.9L383.9,119.6z M381,114.9l-2.6-6.5c-0.1-0.2-0.2-0.5-0.3-0.8c0,0.1-0.1,0.3-0.1,0.4
		c0,0.1-0.1,0.3-0.1,0.4l-2.6,6.5H381z"/>
	<path class="st2" d="M392.5,106.3v13.3H392c-0.2,0-0.2-0.1-0.3-0.2l-0.1-1.4c-0.4,0.5-0.9,1-1.4,1.3c-0.5,0.3-1.1,0.5-1.8,0.5
		c-1.1,0-2-0.4-2.6-1.2c-0.6-0.8-0.9-1.9-0.9-3.5c0-0.7,0.1-1.3,0.3-1.9c0.2-0.6,0.4-1.1,0.8-1.5c0.3-0.4,0.7-0.8,1.2-1
		c0.5-0.2,1.1-0.4,1.7-0.4c0.6,0,1.1,0.1,1.6,0.3c0.5,0.2,0.8,0.6,1.2,1v-5.4H392.5z M391.6,112.4c-0.3-0.5-0.7-0.9-1.2-1.1
		c-0.4-0.2-0.9-0.3-1.5-0.3c-0.5,0-1,0.1-1.4,0.3c-0.4,0.2-0.7,0.5-1,0.8s-0.5,0.8-0.6,1.3c-0.1,0.5-0.2,1-0.2,1.6
		c0,1.4,0.2,2.4,0.7,3c0.5,0.6,1.2,1,2.2,1c0.6,0,1.1-0.2,1.6-0.5c0.5-0.3,0.9-0.7,1.3-1.3V112.4z"/>
	<path class="st2" d="M395.5,119.6v-9.1h0.5c0.2,0,0.2,0.1,0.3,0.2l0.1,1.3c0.4-0.5,0.8-0.9,1.2-1.2c0.5-0.3,1-0.5,1.5-0.5
		c0.7,0,1.2,0.2,1.6,0.6c0.4,0.4,0.7,0.9,0.8,1.6c0.1-0.4,0.3-0.7,0.5-1s0.4-0.5,0.7-0.7c0.3-0.2,0.5-0.3,0.8-0.4
		c0.3-0.1,0.6-0.1,0.9-0.1c0.5,0,0.9,0.1,1.2,0.2c0.4,0.1,0.7,0.4,0.9,0.7c0.3,0.3,0.4,0.7,0.6,1.1c0.1,0.4,0.2,0.9,0.2,1.5v5.8
		h-0.9v-5.8c0-0.9-0.2-1.6-0.6-2c-0.4-0.5-0.9-0.7-1.6-0.7c-0.3,0-0.6,0.1-0.9,0.2c-0.3,0.1-0.5,0.3-0.8,0.5
		c-0.2,0.2-0.4,0.5-0.5,0.9c-0.1,0.3-0.2,0.7-0.2,1.2v5.8h-0.9v-5.8c0-0.9-0.2-1.6-0.5-2c-0.4-0.5-0.9-0.7-1.5-0.7
		c-0.5,0-1,0.1-1.4,0.4c-0.4,0.3-0.8,0.7-1.1,1.2v6.9H395.5z"/>
	<path class="st2" d="M411.6,107.3c0,0.1,0,0.2-0.1,0.3c0,0.1-0.1,0.2-0.2,0.3s-0.2,0.1-0.3,0.2c-0.1,0-0.2,0.1-0.3,0.1
		s-0.2,0-0.3-0.1c-0.1,0-0.2-0.1-0.3-0.2s-0.1-0.2-0.2-0.3s-0.1-0.2-0.1-0.3s0-0.2,0.1-0.3c0-0.1,0.1-0.2,0.2-0.3s0.2-0.1,0.3-0.2
		c0.1,0,0.2-0.1,0.3-0.1s0.2,0,0.3,0.1c0.1,0,0.2,0.1,0.3,0.2s0.1,0.2,0.2,0.3C411.5,107.1,411.6,107.2,411.6,107.3z M411.2,110.5
		v9.1h-0.9v-9.1H411.2z"/>
	<path class="st2" d="M415.1,112.1c0.4-0.5,0.9-0.9,1.5-1.3c0.6-0.3,1.2-0.5,1.8-0.5c0.5,0,0.9,0.1,1.3,0.2s0.7,0.4,0.9,0.7
		c0.2,0.3,0.4,0.7,0.6,1.1c0.1,0.4,0.2,0.9,0.2,1.4v5.8h-0.9v-5.8c0-0.9-0.2-1.5-0.6-2c-0.4-0.5-1-0.7-1.8-0.7
		c-0.6,0-1.1,0.2-1.7,0.5c-0.5,0.3-1,0.7-1.4,1.3v6.8h-0.9v-9.1h0.5c0.2,0,0.2,0.1,0.3,0.2L415.1,112.1z"/>
	<path class="st2" d="M425.7,107.3c0,0.1,0,0.2-0.1,0.3c0,0.1-0.1,0.2-0.2,0.3s-0.2,0.1-0.3,0.2c-0.1,0-0.2,0.1-0.3,0.1
		s-0.2,0-0.3-0.1c-0.1,0-0.2-0.1-0.3-0.2s-0.1-0.2-0.2-0.3s-0.1-0.2-0.1-0.3s0-0.2,0.1-0.3c0-0.1,0.1-0.2,0.2-0.3s0.2-0.1,0.3-0.2
		c0.1,0,0.2-0.1,0.3-0.1s0.2,0,0.3,0.1c0.1,0,0.2,0.1,0.3,0.2s0.1,0.2,0.2,0.3C425.7,107.1,425.7,107.2,425.7,107.3z M425.3,110.5
		v9.1h-0.9v-9.1H425.3z"/>
	<path class="st2" d="M433.4,111.6c0,0.1-0.1,0.1-0.2,0.1c-0.1,0-0.2,0-0.3-0.1c-0.1-0.1-0.2-0.2-0.4-0.3s-0.4-0.2-0.6-0.3
		s-0.6-0.1-0.9-0.1c-0.3,0-0.6,0-0.9,0.1c-0.3,0.1-0.5,0.2-0.7,0.4c-0.2,0.2-0.3,0.3-0.4,0.6c-0.1,0.2-0.2,0.4-0.2,0.7
		c0,0.3,0.1,0.5,0.2,0.7s0.3,0.4,0.6,0.5c0.2,0.1,0.5,0.3,0.8,0.3c0.3,0.1,0.6,0.2,0.9,0.3c0.3,0.1,0.6,0.2,0.9,0.3
		c0.3,0.1,0.6,0.3,0.8,0.4s0.4,0.4,0.6,0.6c0.1,0.3,0.2,0.6,0.2,0.9c0,0.4-0.1,0.8-0.2,1.1c-0.1,0.3-0.3,0.6-0.6,0.9s-0.6,0.4-1,0.6
		s-0.9,0.2-1.4,0.2c-0.6,0-1.2-0.1-1.7-0.3c-0.5-0.2-0.9-0.5-1.2-0.8l0.2-0.3c0,0,0.1-0.1,0.1-0.1c0,0,0.1,0,0.2,0
		c0.1,0,0.2,0,0.3,0.1c0.1,0.1,0.3,0.2,0.5,0.3s0.4,0.2,0.7,0.3c0.3,0.1,0.6,0.1,1,0.1c0.4,0,0.7-0.1,1-0.2c0.3-0.1,0.5-0.3,0.7-0.4
		s0.3-0.4,0.4-0.6s0.2-0.5,0.2-0.8c0-0.3-0.1-0.6-0.2-0.8c-0.1-0.2-0.3-0.4-0.6-0.5c-0.2-0.1-0.5-0.3-0.8-0.4
		c-0.3-0.1-0.6-0.2-0.9-0.3c-0.3-0.1-0.6-0.2-0.9-0.3c-0.3-0.1-0.6-0.3-0.8-0.4c-0.2-0.2-0.4-0.4-0.6-0.6c-0.1-0.3-0.2-0.6-0.2-0.9
		c0-0.3,0.1-0.6,0.2-0.9c0.1-0.3,0.3-0.6,0.6-0.8s0.6-0.4,0.9-0.5s0.8-0.2,1.3-0.2c0.6,0,1,0.1,1.5,0.2c0.4,0.2,0.8,0.4,1.2,0.7
		L433.4,111.6z"/>
	<path class="st2" d="M438.7,119.7c-0.6,0-1.1-0.2-1.4-0.5c-0.3-0.3-0.5-0.9-0.5-1.6v-6.2h-1.3c-0.1,0-0.1,0-0.2-0.1
		c0,0-0.1-0.1-0.1-0.2v-0.3l1.6-0.1l0.2-3.3c0-0.1,0-0.1,0.1-0.1c0,0,0.1-0.1,0.2-0.1h0.4v3.5h2.9v0.6h-2.9v6.2c0,0.2,0,0.5,0.1,0.6
		c0.1,0.2,0.2,0.3,0.3,0.4s0.2,0.2,0.4,0.3c0.2,0.1,0.3,0.1,0.5,0.1c0.2,0,0.4,0,0.6-0.1c0.2-0.1,0.3-0.1,0.4-0.2
		c0.1-0.1,0.2-0.1,0.3-0.2c0.1-0.1,0.1-0.1,0.2-0.1c0,0,0.1,0,0.1,0.1l0.2,0.4c-0.2,0.3-0.5,0.5-0.9,0.6S439.1,119.7,438.7,119.7z"
		/>
	<path class="st2" d="M443.3,112.7c0.1-0.4,0.3-0.7,0.5-1c0.2-0.3,0.4-0.5,0.6-0.7c0.2-0.2,0.5-0.4,0.8-0.5s0.6-0.2,1-0.2
		c0.2,0,0.4,0,0.6,0.1s0.3,0.1,0.5,0.2l-0.1,0.6c0,0.1-0.1,0.1-0.2,0.1c-0.1,0-0.2,0-0.3-0.1s-0.3-0.1-0.6-0.1
		c-0.4,0-0.7,0.1-0.9,0.2c-0.3,0.1-0.5,0.3-0.7,0.5c-0.2,0.2-0.4,0.5-0.6,0.8c-0.2,0.3-0.3,0.7-0.4,1.1v5.9h-0.9v-9.1h0.5
		c0.1,0,0.2,0,0.2,0.1c0,0,0.1,0.1,0.1,0.2L443.3,112.7z"/>
	<path class="st2" d="M448.5,111.8c0.5-0.5,1-0.8,1.5-1.1c0.5-0.2,1.1-0.4,1.8-0.4c0.5,0,0.9,0.1,1.3,0.2c0.4,0.2,0.7,0.4,0.9,0.7
		c0.2,0.3,0.4,0.6,0.5,1.1c0.1,0.4,0.2,0.9,0.2,1.4v5.9h-0.3c-0.2,0-0.3-0.1-0.3-0.3l-0.1-1.2c-0.2,0.2-0.5,0.5-0.7,0.7
		s-0.5,0.4-0.8,0.5s-0.6,0.2-0.9,0.3s-0.7,0.1-1,0.1c-0.3,0-0.6,0-0.9-0.1c-0.3-0.1-0.6-0.2-0.8-0.4c-0.2-0.2-0.4-0.4-0.5-0.7
		c-0.1-0.3-0.2-0.7-0.2-1.1c0-0.4,0.1-0.7,0.3-1.1c0.2-0.3,0.6-0.6,1-0.9s1.1-0.4,1.8-0.6c0.7-0.1,1.6-0.2,2.6-0.3v-1
		c0-0.8-0.2-1.5-0.5-1.9s-0.9-0.7-1.6-0.7c-0.4,0-0.8,0.1-1.1,0.2s-0.6,0.3-0.8,0.4c-0.2,0.1-0.4,0.3-0.5,0.4
		c-0.1,0.1-0.2,0.2-0.3,0.2c-0.1,0-0.1,0-0.2,0c0,0-0.1-0.1-0.1-0.1L448.5,111.8z M453.8,115.2c-0.9,0-1.6,0.1-2.2,0.2
		c-0.6,0.1-1.1,0.3-1.5,0.4s-0.7,0.4-0.9,0.7c-0.2,0.3-0.3,0.5-0.3,0.9c0,0.3,0.1,0.6,0.2,0.8s0.2,0.4,0.4,0.5
		c0.2,0.1,0.4,0.2,0.6,0.3c0.2,0.1,0.4,0.1,0.7,0.1c0.4,0,0.7,0,1-0.1c0.3-0.1,0.6-0.2,0.8-0.3s0.5-0.3,0.7-0.5
		c0.2-0.2,0.4-0.4,0.6-0.6V115.2z"/>
	<path class="st2" d="M464.1,118.4c-0.3,0.3-0.6,0.6-1.1,0.9s-1,0.4-1.6,0.4l-0.2,0.8c0.6,0.1,1,0.2,1.3,0.4
		c0.3,0.2,0.4,0.5,0.4,0.8c0,0.2,0,0.3-0.1,0.5s-0.2,0.3-0.3,0.4s-0.3,0.2-0.5,0.2c-0.2,0.1-0.4,0.1-0.7,0.1c-0.3,0-0.5,0-0.7-0.1
		c-0.2-0.1-0.4-0.2-0.6-0.3l0.1-0.3c0-0.1,0.1-0.1,0.1-0.1c0,0,0.1,0,0.1,0.1s0.1,0.1,0.2,0.1s0.2,0.1,0.3,0.1s0.3,0.1,0.4,0.1
		c0.3,0,0.6-0.1,0.7-0.2s0.3-0.3,0.3-0.5c0-0.2,0-0.3-0.1-0.4c-0.1-0.1-0.2-0.2-0.3-0.3c-0.1-0.1-0.3-0.1-0.5-0.2s-0.4-0.1-0.7-0.1
		l0.3-1.1c-0.6,0-1.1-0.1-1.5-0.4c-0.5-0.2-0.9-0.5-1.2-0.9c-0.3-0.4-0.6-0.9-0.8-1.5s-0.3-1.2-0.3-1.9c0-0.7,0.1-1.3,0.3-1.9
		c0.2-0.6,0.5-1.1,0.8-1.5c0.4-0.4,0.8-0.7,1.3-1c0.5-0.2,1.1-0.3,1.8-0.3c0.6,0,1.1,0.1,1.6,0.3s0.9,0.4,1.2,0.8l-0.2,0.3
		c0,0-0.1,0.1-0.1,0.1s-0.1,0-0.1,0c-0.1,0-0.1,0-0.2-0.1c-0.1-0.1-0.2-0.2-0.4-0.3c-0.2-0.1-0.4-0.2-0.7-0.3s-0.6-0.1-1-0.1
		c-0.5,0-1,0.1-1.4,0.3s-0.7,0.5-1,0.8s-0.5,0.8-0.6,1.3c-0.1,0.5-0.2,1-0.2,1.7c0,0.6,0.1,1.2,0.2,1.7s0.4,0.9,0.6,1.2
		c0.3,0.3,0.6,0.6,1,0.8c0.4,0.2,0.8,0.3,1.3,0.3c0.4,0,0.8-0.1,1.1-0.2c0.3-0.1,0.5-0.2,0.7-0.3c0.2-0.1,0.3-0.2,0.5-0.3
		s0.2-0.2,0.3-0.2s0.1,0,0.2,0.1L464.1,118.4z"/>
	<path class="st2" d="M466,111.8c0.5-0.5,1-0.8,1.5-1.1c0.5-0.2,1.1-0.4,1.8-0.4c0.5,0,0.9,0.1,1.3,0.2c0.4,0.2,0.7,0.4,0.9,0.7
		c0.2,0.3,0.4,0.6,0.5,1.1c0.1,0.4,0.2,0.9,0.2,1.4v5.9h-0.3c-0.2,0-0.3-0.1-0.3-0.3l-0.1-1.2c-0.2,0.2-0.5,0.5-0.7,0.7
		s-0.5,0.4-0.8,0.5s-0.6,0.2-0.9,0.3s-0.7,0.1-1,0.1c-0.3,0-0.6,0-0.9-0.1c-0.3-0.1-0.6-0.2-0.8-0.4c-0.2-0.2-0.4-0.4-0.5-0.7
		c-0.1-0.3-0.2-0.7-0.2-1.1c0-0.4,0.1-0.7,0.3-1.1c0.2-0.3,0.6-0.6,1-0.9s1.1-0.4,1.8-0.6c0.7-0.1,1.6-0.2,2.6-0.3v-1
		c0-0.8-0.2-1.5-0.5-1.9s-0.9-0.7-1.6-0.7c-0.4,0-0.8,0.1-1.1,0.2s-0.6,0.3-0.8,0.4c-0.2,0.1-0.4,0.3-0.5,0.4
		c-0.1,0.1-0.2,0.2-0.3,0.2c-0.1,0-0.1,0-0.2,0c0,0-0.1-0.1-0.1-0.1L466,111.8z M471.3,115.2c-0.9,0-1.6,0.1-2.2,0.2
		c-0.6,0.1-1.1,0.3-1.5,0.4s-0.7,0.4-0.9,0.7c-0.2,0.3-0.3,0.5-0.3,0.9c0,0.3,0.1,0.6,0.2,0.8s0.2,0.4,0.4,0.5
		c0.2,0.1,0.4,0.2,0.6,0.3c0.2,0.1,0.4,0.1,0.7,0.1c0.4,0,0.7,0,1-0.1c0.3-0.1,0.6-0.2,0.8-0.3s0.5-0.3,0.7-0.5
		c0.2-0.2,0.4-0.4,0.6-0.6V115.2z M470.1,107.9c0.3,0,0.5-0.1,0.6-0.3c0.1-0.2,0.2-0.4,0.2-0.7h0.5c0,0.2,0,0.4-0.1,0.6
		c-0.1,0.2-0.1,0.4-0.3,0.5c-0.1,0.1-0.3,0.2-0.4,0.3c-0.2,0.1-0.4,0.1-0.6,0.1c-0.2,0-0.4-0.1-0.6-0.2c-0.2-0.1-0.3-0.2-0.5-0.3
		s-0.3-0.2-0.5-0.3c-0.2-0.1-0.3-0.2-0.5-0.2c-0.3,0-0.5,0.1-0.6,0.3c-0.1,0.2-0.2,0.4-0.2,0.7h-0.6c0-0.2,0-0.4,0.1-0.6
		c0.1-0.2,0.1-0.4,0.3-0.5c0.1-0.1,0.3-0.2,0.4-0.3s0.4-0.1,0.6-0.1s0.4,0.1,0.6,0.2c0.2,0.1,0.3,0.2,0.5,0.3
		c0.2,0.1,0.3,0.2,0.5,0.3C469.8,107.8,470,107.9,470.1,107.9z"/>
	<path class="st2" d="M478.7,110.3c0.7,0,1.2,0.1,1.8,0.3s1,0.5,1.3,0.9c0.4,0.4,0.6,0.9,0.8,1.5c0.2,0.6,0.3,1.2,0.3,1.9
		s-0.1,1.4-0.3,1.9s-0.5,1.1-0.8,1.5c-0.4,0.4-0.8,0.7-1.3,0.9s-1.1,0.3-1.8,0.3c-0.7,0-1.2-0.1-1.8-0.3c-0.5-0.2-1-0.5-1.3-0.9
		s-0.6-0.9-0.8-1.5s-0.3-1.2-0.3-1.9s0.1-1.4,0.3-1.9c0.2-0.6,0.5-1.1,0.8-1.5s0.8-0.7,1.3-0.9C477.5,110.4,478,110.3,478.7,110.3z
		 M478.7,119c0.5,0,1-0.1,1.4-0.3s0.7-0.5,1-0.8s0.5-0.8,0.6-1.3c0.1-0.5,0.2-1,0.2-1.7c0-0.6-0.1-1.2-0.2-1.6
		c-0.1-0.5-0.3-0.9-0.6-1.3c-0.3-0.4-0.6-0.6-1-0.8s-0.9-0.3-1.4-0.3s-1,0.1-1.4,0.3c-0.4,0.2-0.7,0.5-1,0.8
		c-0.3,0.4-0.5,0.8-0.6,1.3s-0.2,1-0.2,1.6c0,0.6,0.1,1.2,0.2,1.7c0.1,0.5,0.3,0.9,0.6,1.3s0.6,0.6,1,0.8
		C477.7,118.9,478.2,119,478.7,119z"/>
	<path class="st2" d="M494,106.6c1.5,0,2.7,0.3,3.4,1c0.8,0.7,1.2,1.6,1.2,2.8c0,0.6-0.1,1.1-0.3,1.6c-0.2,0.5-0.5,0.9-0.9,1.2
		c-0.4,0.3-0.9,0.6-1.4,0.8c-0.6,0.2-1.2,0.3-1.9,0.3h-2.4v5.2h-0.9v-12.9H494z M494,113.6c0.6,0,1.1-0.1,1.5-0.2
		c0.5-0.2,0.8-0.4,1.1-0.7c0.3-0.3,0.6-0.6,0.7-1c0.2-0.4,0.3-0.8,0.3-1.2c0-1-0.3-1.8-0.9-2.3s-1.5-0.8-2.7-0.8h-2.4v6.2H494z"/>
	<path class="st2" d="M507.8,110.5v9.1h-0.5c-0.2,0-0.2-0.1-0.3-0.2L507,118c-0.4,0.5-0.9,0.9-1.5,1.3c-0.6,0.3-1.2,0.5-1.8,0.5
		c-0.5,0-0.9-0.1-1.3-0.2c-0.4-0.2-0.7-0.4-0.9-0.7c-0.2-0.3-0.4-0.7-0.6-1.1c-0.1-0.4-0.2-0.9-0.2-1.4v-5.8h0.9v5.8
		c0,0.9,0.2,1.5,0.6,2c0.4,0.5,1,0.7,1.8,0.7c0.6,0,1.1-0.2,1.7-0.5c0.5-0.3,1-0.7,1.4-1.3v-6.8H507.8z M506.3,106.5l-2,2.3
		c0,0.1-0.1,0.1-0.2,0.1c-0.1,0-0.1,0-0.2,0h-0.5l1.4-2.2c0.1-0.1,0.1-0.2,0.2-0.2c0.1,0,0.2-0.1,0.3-0.1H506.3z"/>
	<path class="st2" d="M511.7,112.1c0.4-0.5,0.9-1,1.4-1.3c0.5-0.3,1.1-0.5,1.8-0.5c0.5,0,1,0.1,1.5,0.3s0.8,0.5,1.1,0.9
		c0.3,0.4,0.5,0.8,0.7,1.4c0.2,0.6,0.2,1.2,0.2,1.9c0,0.7-0.1,1.4-0.3,2c-0.2,0.6-0.4,1.1-0.8,1.6c-0.3,0.4-0.8,0.8-1.2,1
		c-0.5,0.2-1,0.4-1.7,0.4c-0.6,0-1.2-0.1-1.7-0.4s-0.8-0.6-1.2-1.1l-0.1,1.1c0,0.2-0.1,0.2-0.2,0.2h-0.5v-13.3h0.9V112.1z
		 M511.7,117.6c0.4,0.5,0.7,0.9,1.2,1.1c0.4,0.2,0.9,0.3,1.4,0.3c0.5,0,1-0.1,1.4-0.3c0.4-0.2,0.7-0.5,1-0.8s0.5-0.8,0.6-1.3
		s0.2-1.1,0.2-1.7c0-1.3-0.3-2.2-0.8-2.8c-0.5-0.6-1.2-1-2.1-1c-0.6,0-1.2,0.2-1.7,0.5c-0.5,0.3-0.9,0.7-1.3,1.3V117.6z"/>
	<path class="st2" d="M521.8,106.3v13.3h-0.9v-13.3H521.8z"/>
	<path class="st2" d="M526.2,107.3c0,0.1,0,0.2-0.1,0.3c0,0.1-0.1,0.2-0.2,0.3s-0.2,0.1-0.3,0.2c-0.1,0-0.2,0.1-0.3,0.1
		s-0.2,0-0.3-0.1c-0.1,0-0.2-0.1-0.3-0.2s-0.1-0.2-0.2-0.3s-0.1-0.2-0.1-0.3s0-0.2,0.1-0.3c0-0.1,0.1-0.2,0.2-0.3s0.2-0.1,0.3-0.2
		c0.1,0,0.2-0.1,0.3-0.1s0.2,0,0.3,0.1c0.1,0,0.2,0.1,0.3,0.2s0.1,0.2,0.2,0.3C526.2,107.1,526.2,107.2,526.2,107.3z M525.9,110.5
		v9.1H525v-9.1H525.9z"/>
	<path class="st2" d="M535.1,111.7C535.1,111.7,535,111.8,535.1,111.7c-0.1,0.1-0.2,0.1-0.2,0.1c-0.1,0-0.1,0-0.2-0.1
		c-0.1-0.1-0.2-0.2-0.4-0.3c-0.2-0.1-0.4-0.2-0.7-0.3s-0.6-0.1-1-0.1c-0.5,0-1,0.1-1.4,0.3s-0.7,0.5-1,0.8s-0.5,0.8-0.6,1.3
		c-0.1,0.5-0.2,1-0.2,1.7c0,0.6,0.1,1.2,0.2,1.7s0.4,0.9,0.6,1.2c0.3,0.3,0.6,0.6,1,0.8c0.4,0.2,0.8,0.3,1.3,0.3
		c0.4,0,0.8-0.1,1.1-0.2c0.3-0.1,0.5-0.2,0.7-0.3c0.2-0.1,0.3-0.2,0.5-0.3s0.2-0.2,0.3-0.2s0.1,0,0.2,0.1l0.2,0.3
		c-0.1,0.2-0.3,0.4-0.5,0.5c-0.2,0.2-0.5,0.3-0.7,0.4c-0.3,0.1-0.6,0.2-0.9,0.3c-0.3,0.1-0.6,0.1-1,0.1c-0.6,0-1.1-0.1-1.6-0.3
		s-0.9-0.5-1.2-0.9c-0.3-0.4-0.6-0.9-0.8-1.5c-0.2-0.6-0.3-1.2-0.3-2c0-0.7,0.1-1.3,0.3-1.9c0.2-0.6,0.5-1.1,0.8-1.5
		c0.4-0.4,0.8-0.7,1.3-1c0.5-0.2,1.1-0.3,1.8-0.3c0.6,0,1.1,0.1,1.6,0.3s0.9,0.4,1.2,0.8L535.1,111.7z"/>
	<path class="st2" d="M537.3,111.8c0.5-0.5,1-0.8,1.5-1.1c0.5-0.2,1.1-0.4,1.8-0.4c0.5,0,0.9,0.1,1.3,0.2c0.4,0.2,0.7,0.4,0.9,0.7
		c0.2,0.3,0.4,0.6,0.5,1.1c0.1,0.4,0.2,0.9,0.2,1.4v5.9h-0.3c-0.2,0-0.3-0.1-0.3-0.3l-0.1-1.2c-0.2,0.2-0.5,0.5-0.7,0.7
		s-0.5,0.4-0.8,0.5s-0.6,0.2-0.9,0.3s-0.7,0.1-1,0.1c-0.3,0-0.6,0-0.9-0.1c-0.3-0.1-0.6-0.2-0.8-0.4c-0.2-0.2-0.4-0.4-0.5-0.7
		c-0.1-0.3-0.2-0.7-0.2-1.1c0-0.4,0.1-0.7,0.3-1.1c0.2-0.3,0.6-0.6,1-0.9s1.1-0.4,1.8-0.6c0.7-0.1,1.6-0.2,2.6-0.3v-1
		c0-0.8-0.2-1.5-0.5-1.9s-0.9-0.7-1.6-0.7c-0.4,0-0.8,0.1-1.1,0.2s-0.6,0.3-0.8,0.4c-0.2,0.1-0.4,0.3-0.5,0.4
		c-0.1,0.1-0.2,0.2-0.3,0.2c-0.1,0-0.1,0-0.2,0c0,0-0.1-0.1-0.1-0.1L537.3,111.8z M542.7,115.2c-0.9,0-1.6,0.1-2.2,0.2
		c-0.6,0.1-1.1,0.3-1.5,0.4s-0.7,0.4-0.9,0.7c-0.2,0.3-0.3,0.5-0.3,0.9c0,0.3,0.1,0.6,0.2,0.8s0.2,0.4,0.4,0.5
		c0.2,0.1,0.4,0.2,0.6,0.3c0.2,0.1,0.4,0.1,0.7,0.1c0.4,0,0.7,0,1-0.1c0.3-0.1,0.6-0.2,0.8-0.3s0.5-0.3,0.7-0.5
		c0.2-0.2,0.4-0.4,0.6-0.6V115.2z"/>
</g>
</svg>
